<svg width="704" height="386" viewBox="0 0 704 386" fill="none" xmlns="http://www.w3.org/2000/svg">
<rect width="144.588" height="12" rx="7.34327" transform="matrix(0.813197 -0.469458 0.813197 0.469458 145.178 218.334)" stroke="currentColor"/>
<rect width="144.588" height="12" rx="7.34327" transform="matrix(0.813197 -0.469458 0.813197 0.469458 167.587 230.4)" stroke="currentColor"/>
<rect width="144.588" height="12" rx="7.34327" transform="matrix(0.813197 -0.469458 0.813197 0.469458 346.862 330.383)" stroke="currentColor"/>
<path d="M275.455 125.057L529.41 271.665L511.754 275.586L257.799 128.977L275.455 125.057ZM537.414 260.773L530.622 270.965L276.667 124.357L283.458 114.164L537.414 260.773ZM422.576 33.4745C432.135 27.956 447.633 27.956 457.192 33.4745L676.645 160.165C686.205 165.683 686.205 174.63 676.645 180.149L538.414 259.95L284.344 113.275L422.576 33.4745ZM119.521 208.428L256.26 129.489L510.329 276.163L373.591 355.102C364.032 360.621 348.534 360.621 338.974 355.102L119.521 228.412C109.962 222.893 109.962 213.946 119.521 208.428Z" stroke="currentColor" stroke-width="2"/>

<path class="hover-line" d="M414.118 100.227L413.898 99.8974L413.644 99.9538L413.546 100.1L414.118 100.227ZM430.539 131.254L431.087 131.412L431.094 131.403L430.539 131.254ZM430.539 134.701L429.992 134.859L430.036 134.91L430.106 134.951L430.539 134.701ZM473.086 110.139L473.28 109.803L473.244 109.796L473.207 109.792L473.086 110.139ZM433.525 132.977L432.944 132.866L433.525 132.977ZM467.861 112.293L467.634 111.965L467.591 111.975L467.552 111.988L467.861 112.293ZM437.257 135.132L437.803 135.293L437.814 135.281L437.823 135.268L437.257 135.132ZM437.257 140.303L437.69 140.053L437.633 140.02L437.564 139.997L437.257 140.303ZM458.158 125.652L458.574 125.911L458.576 125.91L458.158 125.652ZM451.034 140.5L450.504 140.323L451.034 140.5ZM459.771 133.478L459.31 133.246L459.771 133.478ZM466.397 129.547L465.982 129.287L466.397 129.547ZM483.78 122.345L483.488 122.034L483.78 122.345ZM477.565 167.02L477.01 166.871L476.919 166.985L476.971 167.106L477.565 167.02ZM528.323 137.717L528.472 137.374L528.238 137.341L528.028 137.408L528.323 137.717ZM479.058 170.467L478.464 170.553L478.491 170.615L478.553 170.667L479.058 170.467ZM534.295 138.579L534.64 138.288L534.55 138.252L534.443 138.236L534.295 138.579ZM449.358 117.457L449.766 117.72L449.358 117.457ZM390.679 85.3345C390.448 85.1919 390.061 85.1844 389.814 85.3178C389.567 85.4512 389.554 85.6749 389.785 85.8175L390.232 85.576L390.679 85.3345ZM570.579 149.52L571.174 149.437L571.168 149.423L571.16 149.409L570.579 149.52ZM579.536 144.349L579.623 143.999V143.999L579.536 144.349ZM576.842 163.142L576.664 162.804L576.476 162.836L576.356 162.926L576.842 163.142ZM497.428 222.777L496.942 222.561L496.303 223.041L497.341 223.127L497.428 222.777ZM634.773 152.968L635.379 153.018L635.515 152.468L634.594 152.63L634.773 152.968ZM500.672 220.341L501.158 220.556L501.158 220.556L500.672 220.341ZM500.659 213.155L501.2 212.99L500.659 213.155ZM496.968 206.998L497.569 206.931L496.968 206.998ZM484.235 209.99L484.846 209.969V209.969L484.235 209.99ZM508.624 187.011L508.121 186.809L508.113 186.816L508.106 186.822L508.624 187.011ZM584.855 161.735L585.033 162.073V162.073L584.855 161.735ZM589.24 146.504L589.57 146.802L589.24 146.504ZM630.194 153.772L630.372 154.11V154.11L630.194 153.772ZM571.651 167.04L572.137 167.255V167.255L571.651 167.04ZM592.972 174.514L592.752 174.184L592.599 174.218L592.496 174.292L592.972 174.514ZM641.491 163.741L641.833 163.448L641.819 163.443L641.491 163.741ZM589.24 172.359L589.03 172.027L588.869 172.061L588.762 172.138L589.24 172.359ZM525.86 222.464L525.384 222.242L525.384 222.242L525.86 222.464ZM587.531 178.401L587.055 178.179L587.531 178.401ZM630.574 166.165L630.354 165.835V165.835L630.574 166.165ZM566.1 211.573L565.61 211.361L566.1 211.573ZM633.28 177.961L633.61 178.259L633.633 178.25L633.655 178.24L633.28 177.961ZM635.919 192.813L635.504 193.073V193.073L635.919 192.813ZM634.773 180.547L635.206 180.797L635.23 180.783L635.251 180.767L634.773 180.547ZM656.384 180.998L656.774 180.726V180.726L656.384 180.998ZM572.818 212.004L572.365 211.766L572.818 212.004ZM480.549 205.558L479.952 205.477L480.549 205.558ZM482.448 204.294L482.667 204.624L482.448 204.294ZM484.38 207.992L484.987 208.038L484.38 207.992ZM486.628 206.393L486.433 206.058L486.628 206.393ZM430.539 131.254L429.992 131.096C429.444 131.728 428.681 133.346 429.992 134.859L430.539 134.701L431.087 134.543C430.009 133.299 430.64 131.928 431.087 131.412L430.539 131.254ZM466.369 110.57L466.642 110.886C467.543 110.626 470.141 110.159 472.966 110.485L473.086 110.139L473.207 109.792C470.06 109.429 467.184 109.939 466.095 110.253L466.369 110.57ZM430.539 134.701L430.106 134.951C430.315 135.072 430.614 135.172 430.98 135.195C431.354 135.219 431.743 135.16 432.113 135.016C432.822 134.74 433.498 134.142 434.106 133.089L433.525 132.977L432.944 132.866C432.358 133.881 431.79 134.289 431.429 134.429C431.264 134.494 431.161 134.495 431.116 134.492C431.062 134.489 431.012 134.474 430.972 134.451L430.539 134.701ZM433.525 132.977L434.106 133.089C434.818 131.857 437.936 128.557 443.605 124.64C449.261 120.732 457.42 116.237 468.171 112.598L467.861 112.293L467.552 111.988C456.656 115.675 448.393 120.229 442.666 124.186C436.952 128.133 433.725 131.512 432.944 132.866L433.525 132.977ZM433.525 132.977L433.092 133.227L436.824 135.382L437.257 135.132L437.69 134.882L433.958 132.727L433.525 132.977ZM467.861 112.293L468.089 112.621C468.417 112.546 468.78 112.459 469.158 112.364L468.915 112.04L468.671 111.715C468.303 111.807 467.951 111.892 467.634 111.965L467.861 112.293ZM468.915 112.04L469.158 112.364C470.416 112.049 471.892 111.638 472.866 111.26C473.112 111.164 473.338 111.066 473.525 110.968C473.704 110.873 473.883 110.76 473.994 110.63C474.111 110.493 474.179 110.297 473.989 110.105C473.822 109.937 473.529 109.851 473.28 109.803L473.086 110.139L472.893 110.474C473.034 110.501 472.981 110.512 472.926 110.456C472.848 110.377 472.9 110.312 472.895 110.318C472.883 110.332 472.833 110.375 472.699 110.446C472.572 110.513 472.399 110.589 472.182 110.673C471.306 111.014 469.917 111.403 468.671 111.715L468.915 112.04ZM468.915 112.04L468.482 112.29L471.907 114.267L472.34 114.017L472.773 113.767L469.348 111.79L468.915 112.04ZM437.257 135.132L436.712 134.971C436.102 135.66 435.365 136.759 435.148 137.822C434.935 138.865 435.202 140.026 436.951 140.609L437.257 140.303L437.564 139.997C436.487 139.638 436.165 138.88 436.364 137.905C436.559 136.951 437.235 135.935 437.803 135.293L437.257 135.132ZM437.257 135.132L437.823 135.268C440.255 131.898 450.664 122.899 472.683 114.31L472.34 114.017L471.997 113.724C449.827 122.372 439.236 131.471 436.692 134.996L437.257 135.132ZM472.34 114.017L472.593 114.339C473.926 113.989 476.073 113.549 478.161 113.364C479.205 113.272 480.208 113.247 481.075 113.32C481.943 113.394 482.63 113.562 483.104 113.836L483.537 113.586L483.97 113.336C483.249 112.92 482.282 112.708 481.253 112.621C480.225 112.534 479.091 112.567 477.977 112.665C475.748 112.862 473.492 113.326 472.087 113.695L472.34 114.017ZM437.257 140.303L436.824 140.553C437.213 140.778 437.972 140.967 439.032 141.021C440.115 141.077 441.568 140.995 443.423 140.638L443.229 140.303L443.035 139.968C441.307 140.3 440.023 140.362 439.14 140.317C438.235 140.271 437.799 140.116 437.69 140.053L437.257 140.303ZM443.229 140.303L443.712 140.086C443.394 139.85 443.117 139.404 443.171 138.696C443.225 137.992 443.607 137.055 444.55 135.872C446.439 133.506 450.544 130.203 458.574 125.911L458.158 125.652L457.742 125.392C449.648 129.719 445.419 133.095 443.438 135.577C442.447 136.818 442.01 137.846 441.948 138.665C441.885 139.479 442.193 140.11 442.746 140.52L443.229 140.303ZM458.158 125.652L458.576 125.91C462.297 123.905 467.494 121.335 472.211 119.537C474.574 118.636 476.782 117.943 478.604 117.606C480.471 117.26 481.689 117.328 482.357 117.714L482.79 117.464L483.223 117.214C482.026 116.523 480.165 116.574 478.229 116.932C476.249 117.299 473.931 118.034 471.536 118.947C466.736 120.776 461.483 123.377 457.74 125.393L458.158 125.652ZM482.79 117.464L483.223 117.714C484.131 117.19 485.005 116.509 485.309 115.744C485.625 114.951 485.309 114.109 483.97 113.336L483.537 113.586L483.104 113.836C484.153 114.442 484.334 115.036 484.116 115.586C483.885 116.165 483.192 116.733 482.357 117.214L482.79 117.464ZM443.229 140.303L442.796 140.553L448.021 143.569L448.454 143.319L448.887 143.069L443.662 140.053L443.229 140.303ZM488.762 120.912L489.195 120.662L483.223 117.214L482.79 117.464L482.357 117.714L488.329 121.162L488.762 120.912ZM448.454 143.319L447.993 143.552L479.692 164.437L480.153 164.204L480.613 163.971L448.915 143.086L448.454 143.319ZM448.454 143.319L449.006 143.472C449.792 142.524 450.646 141.592 451.564 140.677L451.034 140.5L450.504 140.323C449.571 141.253 448.701 142.202 447.902 143.167L448.454 143.319ZM451.034 140.5L450.574 140.733L482.574 161.792L483.034 161.559L483.494 161.326L451.494 140.267L451.034 140.5ZM451.034 140.5L451.564 140.677C452.988 139.258 454.563 137.881 456.269 136.554L455.777 136.343L455.286 136.133C453.554 137.48 451.952 138.879 450.504 140.323L451.034 140.5ZM455.777 136.343L455.326 136.582L488.264 157.321L488.715 157.082L489.167 156.843L456.229 136.104L455.777 136.343ZM455.777 136.343L456.269 136.554C457.523 135.578 458.848 134.629 460.233 133.71L459.771 133.478L459.31 133.246C457.904 134.178 456.559 135.142 455.286 136.133L455.777 136.343ZM459.771 133.478L459.32 133.717L492.345 154.506L492.796 154.267L493.248 154.028L460.223 133.239L459.771 133.478ZM459.771 133.478L460.233 133.71C462.3 132.339 464.503 131.035 466.812 129.807L466.397 129.547L465.982 129.287C463.641 130.532 461.406 131.855 459.31 133.246L459.771 133.478ZM466.397 129.547L465.946 129.785L498.868 150.515L499.319 150.276L499.771 150.037L466.849 129.308L466.397 129.547ZM466.397 129.547L466.812 129.807C468.364 128.981 469.964 128.19 471.602 127.437L471.221 127.16L470.839 126.884C469.178 127.648 467.556 128.45 465.982 129.287L466.397 129.547ZM471.221 127.16L470.788 127.41L505.079 147.206L505.512 146.956L505.945 146.706L471.654 126.91L471.221 127.16ZM471.221 127.16L471.602 127.437C473.836 126.409 476.141 125.451 478.496 124.57L478.163 124.273L477.83 123.977C475.441 124.871 473.103 125.842 470.839 126.884L471.221 127.16ZM478.163 124.273L477.73 124.523L511.648 144.104L512.081 143.854L512.514 143.604L478.596 124.023L478.163 124.273ZM478.163 124.273L478.496 124.57C480.329 123.884 482.191 123.245 484.072 122.656L483.78 122.345L483.488 122.034C481.578 122.633 479.689 123.281 477.83 123.977L478.163 124.273ZM483.78 122.345L484.072 122.656C485.708 122.143 487.358 121.668 489.015 121.233L488.762 120.912L488.508 120.59C486.824 121.032 485.148 121.514 483.488 122.034L483.78 122.345ZM483.78 122.345L483.357 122.6L517.725 141.579L518.148 141.324L518.572 141.068L484.203 122.089L483.78 122.345ZM488.762 120.912L488.349 121.172L523.184 139.559L523.598 139.298L524.011 139.038L489.175 120.651L488.762 120.912ZM477.565 167.02L478.121 167.169C482.8 161.339 499.486 147.294 528.619 138.027L528.323 137.717L528.028 137.408C498.639 146.756 481.785 160.923 477.01 166.871L477.565 167.02ZM477.565 167.02L476.971 167.106L478.464 170.553L479.058 170.467L479.652 170.382L478.159 166.934L477.565 167.02ZM479.058 170.467L479.613 170.617C484.791 164.211 503.07 148.846 534.589 138.889L534.295 138.579L534.001 138.269C502.221 148.308 483.775 163.796 478.503 170.318L479.058 170.467ZM528.323 137.717L528.175 138.06L534.146 138.922L534.295 138.579L534.443 138.236L528.472 137.374L528.323 137.717ZM479.058 170.467L478.553 170.667L488.256 178.854L488.762 178.655L489.267 178.455L479.563 170.268L479.058 170.467ZM534.295 138.579L533.949 138.871L548.131 144.473L548.477 144.181L548.823 143.889L534.64 138.288L534.295 138.579ZM548.477 144.181L548.198 143.866C536.907 147.198 509.202 158.762 488.24 178.47L488.762 178.655L489.284 178.84C510.122 159.248 537.654 147.772 548.756 144.496L548.477 144.181ZM488.762 178.655L488.193 178.524C487.692 179.248 486.903 180.596 486.937 181.731C486.953 182.298 487.177 182.88 487.871 183.286C488.588 183.706 489.669 183.862 491.088 183.745L491.002 183.395L490.915 183.045C489.721 183.143 489.091 182.994 488.743 182.79C488.372 182.572 488.176 182.211 488.161 181.719C488.132 180.735 488.837 179.499 489.33 178.786L488.762 178.655ZM548.477 144.181L548.671 144.517C550.142 144.234 552.225 143.948 553.758 143.974C554.544 143.988 555.04 144.082 555.28 144.213C555.452 144.306 555.616 144.489 555.361 144.931L555.942 145.043L556.523 145.155C556.864 144.563 556.767 144.049 556.118 143.697C555.537 143.382 554.652 143.283 553.795 143.268C552.045 143.237 549.798 143.554 548.283 143.846L548.477 144.181ZM491.002 183.395L491.611 183.427C491.695 182.899 492.161 182.074 493.042 180.988C493.915 179.913 495.169 178.612 496.775 177.143C499.986 174.204 504.59 170.607 510.329 166.811C521.81 159.216 537.8 150.846 556.222 145.357L555.942 145.043L555.661 144.729C537.06 150.271 520.953 158.708 509.406 166.346C503.631 170.166 498.988 173.792 495.739 176.765C494.114 178.252 492.834 179.579 491.933 180.688C491.041 181.788 490.495 182.706 490.392 183.363L491.002 183.395ZM430.539 131.254L431.094 131.403C432.064 130.203 433.721 128.528 436.064 126.6L435.562 126.397L435.061 126.194C432.687 128.148 430.991 129.859 429.984 131.104L430.539 131.254ZM414.118 100.227L413.511 100.18C412.599 104.114 415.757 114.77 435.117 126.639L435.562 126.397L436.008 126.154C416.827 114.395 413.874 103.942 414.725 100.274L414.118 100.227ZM435.562 126.397L436.064 126.6C437.858 125.123 440.05 123.502 442.638 121.836L442.182 121.6L441.726 121.364C439.104 123.052 436.882 124.695 435.061 126.194L435.562 126.397ZM414.118 100.227L413.563 100.377C416.625 104.174 426.53 113.756 441.767 121.86L442.182 121.6L442.597 121.34C427.495 113.308 417.679 103.806 414.673 100.078L414.118 100.227ZM442.182 121.6L442.638 121.836C444.752 120.475 447.128 119.085 449.766 117.72L449.358 117.457L448.949 117.194C446.276 118.577 443.867 119.985 441.726 121.364L442.182 121.6ZM414.118 100.227L413.875 100.552C418.345 101.668 431.741 106.676 448.902 117.694L449.358 117.457L449.813 117.221C432.591 106.164 419.057 101.076 414.361 99.9029L414.118 100.227ZM449.358 117.457L449.766 117.72C452.264 116.429 454.995 115.16 457.958 113.96L457.606 113.671L457.255 113.381C454.249 114.598 451.48 115.885 448.949 117.194L449.358 117.457ZM457.606 113.671L457.958 113.96C460.664 112.865 463.563 111.827 466.655 110.882L466.369 110.57L466.082 110.257C462.942 111.217 460 112.27 457.255 113.381L457.606 113.671ZM414.118 100.227L414.13 100.581C421.289 100.496 440.103 103.016 457.152 113.908L457.606 113.671L458.06 113.434C440.786 102.398 421.637 99.7847 414.105 99.8739L414.118 100.227ZM414.118 100.227L413.546 100.1C413.041 100.858 412.563 101.709 412.167 102.65L412.763 102.733L413.358 102.817C413.74 101.908 414.202 101.086 414.689 100.354L414.118 100.227ZM412.763 102.733L412.167 102.65C409.577 108.808 410.553 118.711 430.08 131.488L430.539 131.254L430.999 131.02C411.695 118.39 410.875 108.718 413.358 102.817L412.763 102.733ZM412.763 102.733L413.055 102.423C412.54 102.261 411.909 101.903 411.637 101.362C411.369 100.832 411.425 100.083 412.407 99.113L411.879 98.9345L411.35 98.7561C410.231 99.8613 410.083 100.81 410.461 101.559C410.833 102.298 411.695 102.801 412.47 103.044L412.763 102.733ZM414.118 100.227L414.338 100.557C415.705 100.254 417.235 100.009 418.928 99.8482L418.829 99.4993L418.729 99.1505C416.956 99.3191 415.345 99.5761 413.898 99.8974L414.118 100.227ZM418.829 99.4993L418.928 99.8482C428.907 98.8996 444.611 100.856 465.983 110.844L466.369 110.57L466.754 110.295C445.239 100.24 429.188 98.1563 418.729 99.1505L418.829 99.4993ZM411.879 98.9345L412.157 99.2494C412.921 99.0244 414.161 98.7825 415.369 98.7823C416.556 98.7821 417.637 99.0101 418.297 99.6752L418.829 99.4993L419.36 99.3235C418.415 98.3721 416.844 98.075 415.369 98.0752C413.916 98.0754 412.484 98.3594 411.6 98.6196L411.879 98.9345ZM411.879 98.9345L412.326 98.693L390.679 85.3345L390.232 85.576L389.785 85.8175L411.431 99.176L411.879 98.9345ZM491.002 183.395L490.482 183.582L498.944 191.39L499.463 191.202L499.982 191.015L491.521 183.207L491.002 183.395ZM555.942 145.043L555.347 145.129C555.573 145.651 555.402 146.684 554.336 148.329C553.282 149.955 551.39 152.124 548.31 154.885C542.15 160.406 531.272 168.265 512.961 178.836L513.394 179.086L513.827 179.336C532.176 168.743 543.117 160.845 549.34 155.268C552.45 152.48 554.39 150.265 555.483 148.577C556.564 146.909 556.857 145.7 556.536 144.957L555.942 145.043ZM513.394 179.086L513.81 179.345C522.77 174.565 541.564 167.369 563.631 173.193L563.886 172.871L564.14 172.55C541.366 166.539 522.033 173.995 512.979 178.826L513.394 179.086ZM555.942 145.043L556.21 145.361C558.319 144.766 564.01 143.871 569.613 145.111L569.832 144.78L570.052 144.45C564.038 143.12 557.985 144.074 555.673 144.725L555.942 145.043ZM569.832 144.78L569.232 144.711C568.965 145.482 568.766 147.499 569.998 149.632L570.579 149.52L571.16 149.409C570.003 147.405 570.202 145.515 570.433 144.85L569.832 144.78ZM569.832 144.78L570.026 145.116C571.45 144.842 575.384 144.364 579.45 144.699L579.536 144.349L579.623 143.999C575.329 143.645 571.2 144.144 569.639 144.445L569.832 144.78ZM633.28 160.724L633.081 160.39L585.309 169.87L585.508 170.205L585.707 170.539L633.479 161.059L633.28 160.724ZM585.508 170.205L585.028 169.985L511.13 223.85L511.61 224.07L512.09 224.289L585.988 170.424L585.508 170.205ZM585.508 170.205L586.024 170.015L580.799 165.275L580.283 165.465L579.766 165.654L584.991 170.394L585.508 170.205ZM580.283 165.465L580.748 165.235L577.307 162.912L576.842 163.142L576.376 163.372L579.817 165.694L580.283 165.465ZM634.773 152.968L634.166 152.918L633.42 155.934L634.026 155.984L634.633 156.034L635.379 153.018L634.773 152.968ZM634.026 155.984L633.416 155.952L632.67 160.692L633.28 160.724L633.89 160.756L634.636 156.016L634.026 155.984ZM580.283 165.465L580.462 165.803L634.205 156.322L634.026 155.984L633.847 155.646L580.104 165.126L580.283 165.465ZM511.61 224.07L511.711 223.721L502.753 222.859L502.653 223.208L502.552 223.557L511.509 224.418L511.61 224.07ZM502.653 223.208L502.739 222.858L497.514 222.427L497.428 222.777L497.341 223.127L502.566 223.558L502.653 223.208ZM580.283 165.465L579.799 165.248L502.169 222.991L502.653 223.208L503.137 223.425L580.766 165.681L580.283 165.465ZM500.672 220.341L500.187 220.125L496.942 222.561L497.428 222.777L497.913 222.992L501.158 220.556L500.672 220.341ZM500.672 220.341L501.159 220.127L496.422 216.53L495.935 216.744L495.447 216.958L500.185 220.555L500.672 220.341ZM500.659 213.155L500.117 213.32C501.395 214.716 502.942 216.009 504.76 217.167L505.214 216.93L505.668 216.692C503.922 215.581 502.433 214.337 501.2 212.99L500.659 213.155ZM495.935 216.744L496.422 216.958L501.146 213.369L500.659 213.155L500.171 212.941L495.447 216.53L495.935 216.744ZM513.394 179.086L512.979 178.826C498.866 186.356 493.231 197.734 496.367 207.066L496.968 206.998L497.569 206.931C494.513 197.837 500.013 186.707 513.81 179.345L513.394 179.086ZM496.968 206.998L496.367 207.066C497.115 209.291 498.362 211.403 500.117 213.32L500.659 213.155L501.2 212.99C499.507 211.14 498.296 209.095 497.569 206.931L496.968 206.998ZM495.935 216.744L495.988 216.392C494.023 216.293 491.34 215.841 489.102 214.836C486.883 213.84 485.084 212.295 484.846 209.969L484.235 209.99L483.623 210.01C483.883 212.555 485.874 214.283 488.35 215.394C490.808 216.497 493.726 216.987 495.881 217.096L495.935 216.744ZM484.235 209.99L484.846 209.969C484.786 209.379 484.826 208.737 484.987 208.038L484.38 207.992L483.773 207.945C483.602 208.685 483.558 209.372 483.623 210.01L484.235 209.99ZM484.235 209.99L484.386 209.647C483.595 209.531 482.515 209.194 481.77 208.565C481.039 207.947 480.59 207.01 481.145 205.638L480.549 205.558L479.952 205.477C479.33 207.016 479.809 208.16 480.758 208.963C481.694 209.755 483.046 210.179 484.083 210.332L484.235 209.99ZM486.628 206.393L486.823 206.728C487.956 206.509 489.292 206.323 490.649 206.26L490.6 205.908L490.552 205.556C489.073 205.624 487.638 205.824 486.433 206.058L486.628 206.393ZM490.6 205.908L490.649 206.26C492.87 206.158 495.041 206.386 496.535 207.248L496.968 206.998L497.401 206.749C495.542 205.675 492.938 205.445 490.552 205.556L490.6 205.908ZM482.448 204.294L482.667 204.624C484.017 204.325 485.612 204.136 486.981 204.29C487.655 204.366 488.265 204.524 488.775 204.79C489.284 205.056 489.723 205.444 490.013 206.008L490.6 205.908L491.188 205.807C490.844 205.138 490.297 204.631 489.596 204.265C488.896 203.9 488.072 203.693 487.216 203.596C485.525 203.406 483.678 203.643 482.228 203.964L482.448 204.294ZM508.458 214.494L507.973 214.278L500.187 220.125L500.672 220.341L501.158 220.556L508.944 214.709L508.458 214.494ZM508.458 214.494L508.961 214.292C503.848 210.039 496.689 198.639 509.143 187.199L508.624 187.011L508.106 186.822C495.311 198.576 502.659 210.29 507.955 214.695L508.458 214.494ZM560.367 175.513L559.882 175.298L507.973 214.278L508.458 214.494L508.944 214.709L560.852 175.729L560.367 175.513ZM508.624 187.011L509.128 187.212C512.644 184.28 519.437 180.182 528.345 177.448C537.241 174.719 548.214 173.357 560.159 175.846L560.367 175.513L560.575 175.181C548.228 172.608 536.892 174.025 527.771 176.824C518.663 179.619 511.73 183.8 508.121 186.809L508.624 187.011ZM576.842 163.142L577.02 163.48L585.033 162.073L584.855 161.735L584.676 161.396L576.664 162.804L576.842 163.142ZM584.855 161.735L585.424 161.604C584.206 159.829 582.959 156.946 583.178 154.089C583.396 151.235 585.068 148.465 589.57 146.802L589.24 146.504L588.91 146.206C583.945 148.041 582.182 151.077 581.954 154.058C581.726 157.037 583.02 160.021 584.285 161.865L584.855 161.735ZM584.855 161.735L585.033 162.073L630.372 154.11L630.194 153.772L630.016 153.434L584.676 161.396L584.855 161.735ZM630.194 153.772L630.372 154.11L634.951 153.306L634.773 152.968L634.594 152.63L630.016 153.434L630.194 153.772ZM589.24 146.504L589.57 146.802C595.234 144.709 602.219 145.17 609.407 146.865C616.583 148.556 623.81 151.443 629.826 154.055L630.194 153.772L630.562 153.489C624.535 150.873 617.202 147.939 609.87 146.21C602.551 144.485 595.079 143.927 588.91 146.206L589.24 146.504ZM579.536 144.349L579.45 144.699C581.132 144.838 585.416 145.457 588.9 146.798L589.24 146.504L589.58 146.21C585.898 144.793 581.424 144.148 579.623 143.999L579.536 144.349ZM576.842 163.142L576.356 162.926L571.166 166.824L571.651 167.04L572.137 167.255L577.327 163.357L576.842 163.142ZM571.651 167.04L571.166 166.824L559.882 175.298L560.367 175.513L560.852 175.729L572.137 167.255L571.651 167.04ZM589.24 146.504L588.996 146.18C584.649 147.271 578.336 149.82 574.223 153.827L574.75 154.007L575.277 154.187C579.237 150.329 585.331 147.87 589.484 146.828L589.24 146.504ZM574.75 154.007L574.223 153.827C570.736 157.225 568.841 161.664 571.055 167.12L571.651 167.04L572.247 166.959C570.11 161.691 571.941 157.438 575.277 154.187L574.75 154.007ZM570.579 149.52L569.984 149.604C570.298 150.348 571.582 152.261 574.27 154.226L574.75 154.007L575.231 153.788C572.649 151.9 571.445 150.079 571.174 149.437L570.579 149.52ZM641.491 163.741L641.819 163.443L637.714 161.934L637.385 162.233L637.056 162.531L641.162 164.039L641.491 163.741ZM637.385 162.233L637.714 161.934L633.609 160.426L633.28 160.724L632.951 161.023L637.056 162.531L637.385 162.233ZM637.385 162.233L637.176 161.9L589.03 172.027L589.24 172.359L589.449 172.691L637.595 162.565L637.385 162.233ZM511.61 224.07L511.132 224.291L514.118 226.445L514.596 226.224L515.074 226.003L512.088 223.849L511.61 224.07ZM514.596 226.224L514.118 226.445L517.103 228.6L517.582 228.379L518.06 228.158L515.074 226.003L514.596 226.224ZM589.24 172.359L588.762 172.138L514.118 226.003L514.596 226.224L515.074 226.445L589.718 172.58L589.24 172.359ZM592.972 174.514L592.553 174.772L639.579 200.196L639.998 199.938L640.416 199.68L593.391 174.256L592.972 174.514ZM641.491 163.741L641.149 164.034L677.724 178.254L678.066 177.961L678.408 177.668L641.833 163.448L641.491 163.741ZM517.582 228.379L517.092 228.591L548.442 252.723L548.932 252.51L549.422 252.298L518.072 228.167L517.582 228.379ZM517.582 228.379L518.058 228.601L523.395 224.788L522.919 224.565L522.443 224.343L517.105 228.157L517.582 228.379ZM522.919 224.565L522.438 224.784L555.916 249.282L556.396 249.063L556.877 248.844L523.4 224.346L522.919 224.565ZM522.919 224.565L523.395 224.788L526.336 222.686L525.86 222.464L525.384 222.242L522.443 224.343L522.919 224.565ZM525.86 222.464L525.391 222.691L559.66 246.274L560.129 246.047L560.598 245.819L526.329 222.237L525.86 222.464ZM587.531 178.401L588.008 178.623L593.448 174.736L592.972 174.514L592.496 174.292L587.055 178.179L587.531 178.401ZM587.531 178.401L587.098 178.651L631.985 204.564L632.418 204.314L632.851 204.064L587.964 178.151L587.531 178.401ZM592.972 174.514L593.192 174.844L599.004 173.553L598.784 173.223L598.564 172.893L592.752 174.184L592.972 174.514ZM635.022 165.177L635.241 165.507L641.711 164.071L641.491 163.741L641.271 163.411L634.802 164.847L635.022 165.177ZM635.022 165.177L634.652 165.459L671.725 181.69L672.095 181.409L672.465 181.127L635.392 164.896L635.022 165.177ZM525.86 222.464L526.336 222.686L528.733 220.974L528.256 220.752L527.78 220.53L525.384 222.242L525.86 222.464ZM528.256 220.752L528.733 220.974L588.008 178.623L587.531 178.401L587.055 178.179L527.78 220.53L528.256 220.752ZM528.256 220.752L527.794 220.984L562.957 244.379L563.419 244.147L563.882 243.915L528.719 220.52L528.256 220.752ZM598.784 173.223L599.004 173.553L630.794 166.495L630.574 166.165L630.354 165.835L598.564 172.893L598.784 173.223ZM630.574 166.165L630.794 166.495L635.241 165.507L635.022 165.177L634.802 164.847L630.354 165.835L630.574 166.165ZM630.574 166.165L630.192 166.441L667.981 183.84L668.363 183.563L668.744 183.287L630.956 165.888L630.574 166.165ZM528.256 220.752L528.207 221.104L534.701 221.406L534.75 221.053L534.799 220.701L528.305 220.4L528.256 220.752ZM534.75 221.053L534.298 221.292L567.142 241.976L567.593 241.737L568.045 241.498L535.201 220.814L534.75 221.053ZM534.75 221.053L535.221 221.279L592.697 181.203L592.226 180.978L591.754 180.752L534.278 220.828L534.75 221.053ZM630.574 166.165L629.965 166.199L630.431 168.946L631.041 168.912L631.65 168.877L631.183 166.13L630.574 166.165ZM598.784 173.223L598.381 173.49L602.451 175.539L602.854 175.273L603.257 175.006L599.186 172.957L598.784 173.223ZM631.041 168.912L630.818 168.583L602.631 174.944L602.854 175.273L603.077 175.602L631.263 169.241L631.041 168.912ZM570.579 240.014L571.012 239.764C567.01 237.453 562.741 232.876 561.068 227.647C559.397 222.426 560.33 216.61 566.59 211.785L566.1 211.573L565.61 211.361C559.085 216.39 558.151 222.425 559.863 227.776C561.573 233.118 565.937 237.834 570.146 240.264L570.579 240.014ZM566.1 211.573L566.59 211.785C570.212 208.994 576.652 204.648 586.667 202.638C596.646 200.636 610.306 200.927 628.474 207.563L628.801 207.264L629.129 206.965C610.721 200.242 596.672 199.882 586.265 201.97C575.894 204.051 569.271 208.54 565.61 211.361L566.1 211.573ZM602.854 175.273L602.44 175.533L635.504 193.073L635.919 192.813L636.333 192.553L603.268 175.013L602.854 175.273ZM633.28 177.961L632.95 177.663C630.729 178.484 628.255 180.242 627.909 182.859C627.563 185.477 629.354 188.895 635.452 193.042L635.919 192.813L636.385 192.584C630.419 188.527 628.817 185.286 629.13 182.912C629.444 180.537 631.683 178.971 633.61 178.259L633.28 177.961ZM631.041 168.912L630.651 169.184L651.906 179.321L652.296 179.049L652.686 178.776L631.431 168.639L631.041 168.912ZM633.28 177.961L633.655 178.24C635.64 177.351 642.283 176.141 651.992 179.355L652.296 179.049L652.601 178.742C642.575 175.423 635.375 176.574 632.904 177.682L633.28 177.961ZM635.919 192.813L635.504 193.073L639.783 195.343L640.197 195.083L640.612 194.822L636.333 192.553L635.919 192.813ZM640.197 195.083L639.783 195.343L644.062 197.613L644.476 197.353L644.891 197.092L640.612 194.822L640.197 195.083ZM634.773 180.547L634.34 180.297C631.321 182.039 628.803 187.348 639.717 195.302L640.197 195.083L640.678 194.863C629.948 187.044 632.823 182.172 635.206 180.797L634.773 180.547ZM652.296 179.049L651.906 179.321L655.994 181.271L656.384 180.998L656.774 180.726L652.686 178.776L652.296 179.049ZM656.384 180.998L655.994 181.271L664.987 185.559L665.377 185.287L665.767 185.014L656.774 180.726L656.384 180.998ZM634.773 180.547L635.251 180.767C636.962 179.53 643.67 177.577 656.101 181.312L656.384 180.998L656.667 180.685C643.96 176.867 636.517 178.718 634.294 180.326L634.773 180.547ZM574.311 237.859L574.827 237.669C571.961 235.077 568.442 230.681 567.217 225.942C565.993 221.206 567.07 216.178 573.271 212.242L572.818 212.004L572.365 211.766C565.829 215.915 564.75 221.189 566.006 226.047C567.261 230.902 570.856 235.392 573.795 238.049L574.311 237.859ZM572.818 212.004L573.271 212.242C581.158 207.236 589.134 204.766 597.579 204.323C606.041 203.878 615.075 205.462 625.086 208.683L625.384 208.374L625.683 208.066C615.564 204.81 606.276 203.155 597.468 203.618C588.642 204.082 580.4 206.666 572.365 211.766L572.818 212.004ZM480.549 205.558L481.145 205.638C481.333 205.175 481.903 204.794 482.667 204.624L482.448 204.294L482.228 203.964C481.079 204.219 480.231 204.789 479.952 205.477L480.549 205.558ZM484.38 207.992L484.987 208.038C485.127 207.428 485.833 206.92 486.823 206.728L486.628 206.393L486.433 206.058C484.98 206.339 483.972 207.08 483.773 207.945L484.38 207.992Z" fill="currentColor" />

<path d="M414.118 100.227L413.898 99.8974L413.644 99.9538L413.546 100.1L414.118 100.227ZM430.539 131.254L431.087 131.412L431.094 131.403L430.539 131.254ZM430.539 134.701L429.992 134.859L430.036 134.91L430.106 134.951L430.539 134.701ZM473.086 110.139L473.28 109.803L473.244 109.796L473.207 109.792L473.086 110.139ZM433.525 132.977L432.944 132.866L433.525 132.977ZM467.861 112.293L467.634 111.965L467.591 111.975L467.552 111.988L467.861 112.293ZM437.257 135.132L437.803 135.293L437.814 135.281L437.823 135.268L437.257 135.132ZM437.257 140.303L437.69 140.053L437.633 140.02L437.564 139.997L437.257 140.303ZM458.158 125.652L458.574 125.911L458.576 125.91L458.158 125.652ZM451.034 140.5L450.504 140.323L451.034 140.5ZM459.771 133.478L459.31 133.246L459.771 133.478ZM466.397 129.547L465.982 129.287L466.397 129.547ZM483.78 122.345L483.488 122.034L483.78 122.345ZM477.565 167.02L477.01 166.871L476.919 166.985L476.971 167.106L477.565 167.02ZM528.323 137.717L528.472 137.374L528.238 137.341L528.028 137.408L528.323 137.717ZM479.058 170.467L478.464 170.553L478.491 170.615L478.553 170.667L479.058 170.467ZM534.295 138.579L534.64 138.288L534.55 138.252L534.443 138.236L534.295 138.579ZM449.358 117.457L449.766 117.72L449.358 117.457ZM390.679 85.3345C390.448 85.1919 390.061 85.1844 389.814 85.3178C389.567 85.4512 389.554 85.6749 389.785 85.8175L390.232 85.576L390.679 85.3345ZM570.579 149.52L571.174 149.437L571.168 149.423L571.16 149.409L570.579 149.52ZM579.536 144.349L579.623 143.999V143.999L579.536 144.349ZM576.842 163.142L576.664 162.804L576.476 162.836L576.356 162.926L576.842 163.142ZM497.428 222.777L496.942 222.561L496.303 223.041L497.341 223.127L497.428 222.777ZM634.773 152.968L635.379 153.018L635.515 152.468L634.594 152.63L634.773 152.968ZM500.672 220.341L501.158 220.556L501.158 220.556L500.672 220.341ZM500.659 213.155L501.2 212.99L500.659 213.155ZM496.968 206.998L497.569 206.931L496.968 206.998ZM484.235 209.99L484.846 209.969V209.969L484.235 209.99ZM508.624 187.011L508.121 186.809L508.113 186.816L508.106 186.822L508.624 187.011ZM584.855 161.735L585.033 162.073V162.073L584.855 161.735ZM589.24 146.504L589.57 146.802L589.24 146.504ZM630.194 153.772L630.372 154.11V154.11L630.194 153.772ZM571.651 167.04L572.137 167.255V167.255L571.651 167.04ZM592.972 174.514L592.752 174.184L592.599 174.218L592.496 174.292L592.972 174.514ZM641.491 163.741L641.833 163.448L641.819 163.443L641.491 163.741ZM589.24 172.359L589.03 172.027L588.869 172.061L588.762 172.138L589.24 172.359ZM525.86 222.464L525.384 222.242L525.384 222.242L525.86 222.464ZM587.531 178.401L587.055 178.179L587.531 178.401ZM630.574 166.165L630.354 165.835V165.835L630.574 166.165ZM566.1 211.573L565.61 211.361L566.1 211.573ZM633.28 177.961L633.61 178.259L633.633 178.25L633.655 178.24L633.28 177.961ZM635.919 192.813L635.504 193.073V193.073L635.919 192.813ZM634.773 180.547L635.206 180.797L635.23 180.783L635.251 180.767L634.773 180.547ZM656.384 180.998L656.774 180.726V180.726L656.384 180.998ZM572.818 212.004L572.365 211.766L572.818 212.004ZM480.549 205.558L479.952 205.477L480.549 205.558ZM482.448 204.294L482.667 204.624L482.448 204.294ZM484.38 207.992L484.987 208.038L484.38 207.992ZM486.628 206.393L486.433 206.058L486.628 206.393ZM430.539 131.254L429.992 131.096C429.444 131.728 428.681 133.346 429.992 134.859L430.539 134.701L431.087 134.543C430.009 133.299 430.64 131.928 431.087 131.412L430.539 131.254ZM466.369 110.57L466.642 110.886C467.543 110.626 470.141 110.159 472.966 110.485L473.086 110.139L473.207 109.792C470.06 109.429 467.184 109.939 466.095 110.253L466.369 110.57ZM430.539 134.701L430.106 134.951C430.315 135.072 430.614 135.172 430.98 135.195C431.354 135.219 431.743 135.16 432.113 135.016C432.822 134.74 433.498 134.142 434.106 133.089L433.525 132.977L432.944 132.866C432.358 133.881 431.79 134.289 431.429 134.429C431.264 134.494 431.161 134.495 431.116 134.492C431.062 134.489 431.012 134.474 430.972 134.451L430.539 134.701ZM433.525 132.977L434.106 133.089C434.818 131.857 437.936 128.557 443.605 124.64C449.261 120.732 457.42 116.237 468.171 112.598L467.861 112.293L467.552 111.988C456.656 115.675 448.393 120.229 442.666 124.186C436.952 128.133 433.725 131.512 432.944 132.866L433.525 132.977ZM433.525 132.977L433.092 133.227L436.824 135.382L437.257 135.132L437.69 134.882L433.958 132.727L433.525 132.977ZM467.861 112.293L468.089 112.621C468.417 112.546 468.78 112.459 469.158 112.364L468.915 112.04L468.671 111.715C468.303 111.807 467.951 111.892 467.634 111.965L467.861 112.293ZM468.915 112.04L469.158 112.364C470.416 112.049 471.892 111.638 472.866 111.26C473.112 111.164 473.338 111.066 473.525 110.968C473.704 110.873 473.883 110.76 473.994 110.63C474.111 110.493 474.179 110.297 473.989 110.105C473.822 109.937 473.529 109.851 473.28 109.803L473.086 110.139L472.893 110.474C473.034 110.501 472.981 110.512 472.926 110.456C472.848 110.377 472.9 110.312 472.895 110.318C472.883 110.332 472.833 110.375 472.699 110.446C472.572 110.513 472.399 110.589 472.182 110.673C471.306 111.014 469.917 111.403 468.671 111.715L468.915 112.04ZM468.915 112.04L468.482 112.29L471.907 114.267L472.34 114.017L472.773 113.767L469.348 111.79L468.915 112.04ZM437.257 135.132L436.712 134.971C436.102 135.66 435.365 136.759 435.148 137.822C434.935 138.865 435.202 140.026 436.951 140.609L437.257 140.303L437.564 139.997C436.487 139.638 436.165 138.88 436.364 137.905C436.559 136.951 437.235 135.935 437.803 135.293L437.257 135.132ZM437.257 135.132L437.823 135.268C440.255 131.898 450.664 122.899 472.683 114.31L472.34 114.017L471.997 113.724C449.827 122.372 439.236 131.471 436.692 134.996L437.257 135.132ZM472.34 114.017L472.593 114.339C473.926 113.989 476.073 113.549 478.161 113.364C479.205 113.272 480.208 113.247 481.075 113.32C481.943 113.394 482.63 113.562 483.104 113.836L483.537 113.586L483.97 113.336C483.249 112.92 482.282 112.708 481.253 112.621C480.225 112.534 479.091 112.567 477.977 112.665C475.748 112.862 473.492 113.326 472.087 113.695L472.34 114.017ZM437.257 140.303L436.824 140.553C437.213 140.778 437.972 140.967 439.032 141.021C440.115 141.077 441.568 140.995 443.423 140.638L443.229 140.303L443.035 139.968C441.307 140.3 440.023 140.362 439.14 140.317C438.235 140.271 437.799 140.116 437.69 140.053L437.257 140.303ZM443.229 140.303L443.712 140.086C443.394 139.85 443.117 139.404 443.171 138.696C443.225 137.992 443.607 137.055 444.55 135.872C446.439 133.506 450.544 130.203 458.574 125.911L458.158 125.652L457.742 125.392C449.648 129.719 445.419 133.095 443.438 135.577C442.447 136.818 442.01 137.846 441.948 138.665C441.885 139.479 442.193 140.11 442.746 140.52L443.229 140.303ZM458.158 125.652L458.576 125.91C462.297 123.905 467.494 121.335 472.211 119.537C474.574 118.636 476.782 117.943 478.604 117.606C480.471 117.26 481.689 117.328 482.357 117.714L482.79 117.464L483.223 117.214C482.026 116.523 480.165 116.574 478.229 116.932C476.249 117.299 473.931 118.034 471.536 118.947C466.736 120.776 461.483 123.377 457.74 125.393L458.158 125.652ZM482.79 117.464L483.223 117.714C484.131 117.19 485.005 116.509 485.309 115.744C485.625 114.951 485.309 114.109 483.97 113.336L483.537 113.586L483.104 113.836C484.153 114.442 484.334 115.036 484.116 115.586C483.885 116.165 483.192 116.733 482.357 117.214L482.79 117.464ZM443.229 140.303L442.796 140.553L448.021 143.569L448.454 143.319L448.887 143.069L443.662 140.053L443.229 140.303ZM488.762 120.912L489.195 120.662L483.223 117.214L482.79 117.464L482.357 117.714L488.329 121.162L488.762 120.912ZM448.454 143.319L447.993 143.552L479.692 164.437L480.153 164.204L480.613 163.971L448.915 143.086L448.454 143.319ZM448.454 143.319L449.006 143.472C449.792 142.524 450.646 141.592 451.564 140.677L451.034 140.5L450.504 140.323C449.571 141.253 448.701 142.202 447.902 143.167L448.454 143.319ZM451.034 140.5L450.574 140.733L482.574 161.792L483.034 161.559L483.494 161.326L451.494 140.267L451.034 140.5ZM451.034 140.5L451.564 140.677C452.988 139.258 454.563 137.881 456.269 136.554L455.777 136.343L455.286 136.133C453.554 137.48 451.952 138.879 450.504 140.323L451.034 140.5ZM455.777 136.343L455.326 136.582L488.264 157.321L488.715 157.082L489.167 156.843L456.229 136.104L455.777 136.343ZM455.777 136.343L456.269 136.554C457.523 135.578 458.848 134.629 460.233 133.71L459.771 133.478L459.31 133.246C457.904 134.178 456.559 135.142 455.286 136.133L455.777 136.343ZM459.771 133.478L459.32 133.717L492.345 154.506L492.796 154.267L493.248 154.028L460.223 133.239L459.771 133.478ZM459.771 133.478L460.233 133.71C462.3 132.339 464.503 131.035 466.812 129.807L466.397 129.547L465.982 129.287C463.641 130.532 461.406 131.855 459.31 133.246L459.771 133.478ZM466.397 129.547L465.946 129.785L498.868 150.515L499.319 150.276L499.771 150.037L466.849 129.308L466.397 129.547ZM466.397 129.547L466.812 129.807C468.364 128.981 469.964 128.19 471.602 127.437L471.221 127.16L470.839 126.884C469.178 127.648 467.556 128.45 465.982 129.287L466.397 129.547ZM471.221 127.16L470.788 127.41L505.079 147.206L505.512 146.956L505.945 146.706L471.654 126.91L471.221 127.16ZM471.221 127.16L471.602 127.437C473.836 126.409 476.141 125.451 478.496 124.57L478.163 124.273L477.83 123.977C475.441 124.871 473.103 125.842 470.839 126.884L471.221 127.16ZM478.163 124.273L477.73 124.523L511.648 144.104L512.081 143.854L512.514 143.604L478.596 124.023L478.163 124.273ZM478.163 124.273L478.496 124.57C480.329 123.884 482.191 123.245 484.072 122.656L483.78 122.345L483.488 122.034C481.578 122.633 479.689 123.281 477.83 123.977L478.163 124.273ZM483.78 122.345L484.072 122.656C485.708 122.143 487.358 121.668 489.015 121.233L488.762 120.912L488.508 120.59C486.824 121.032 485.148 121.514 483.488 122.034L483.78 122.345ZM483.78 122.345L483.357 122.6L517.725 141.579L518.148 141.324L518.572 141.068L484.203 122.089L483.78 122.345ZM488.762 120.912L488.349 121.172L523.184 139.559L523.598 139.298L524.011 139.038L489.175 120.651L488.762 120.912ZM477.565 167.02L478.121 167.169C482.8 161.339 499.486 147.294 528.619 138.027L528.323 137.717L528.028 137.408C498.639 146.756 481.785 160.923 477.01 166.871L477.565 167.02ZM477.565 167.02L476.971 167.106L478.464 170.553L479.058 170.467L479.652 170.382L478.159 166.934L477.565 167.02ZM479.058 170.467L479.613 170.617C484.791 164.211 503.07 148.846 534.589 138.889L534.295 138.579L534.001 138.269C502.221 148.308 483.775 163.796 478.503 170.318L479.058 170.467ZM528.323 137.717L528.175 138.06L534.146 138.922L534.295 138.579L534.443 138.236L528.472 137.374L528.323 137.717ZM479.058 170.467L478.553 170.667L488.256 178.854L488.762 178.655L489.267 178.455L479.563 170.268L479.058 170.467ZM534.295 138.579L533.949 138.871L548.131 144.473L548.477 144.181L548.823 143.889L534.64 138.288L534.295 138.579ZM548.477 144.181L548.198 143.866C536.907 147.198 509.202 158.762 488.24 178.47L488.762 178.655L489.284 178.84C510.122 159.248 537.654 147.772 548.756 144.496L548.477 144.181ZM488.762 178.655L488.193 178.524C487.692 179.248 486.903 180.596 486.937 181.731C486.953 182.298 487.177 182.88 487.871 183.286C488.588 183.706 489.669 183.862 491.088 183.745L491.002 183.395L490.915 183.045C489.721 183.143 489.091 182.994 488.743 182.79C488.372 182.572 488.176 182.211 488.161 181.719C488.132 180.735 488.837 179.499 489.33 178.786L488.762 178.655ZM548.477 144.181L548.671 144.517C550.142 144.234 552.225 143.948 553.758 143.974C554.544 143.988 555.04 144.082 555.28 144.213C555.452 144.306 555.616 144.489 555.361 144.931L555.942 145.043L556.523 145.155C556.864 144.563 556.767 144.049 556.118 143.697C555.537 143.382 554.652 143.283 553.795 143.268C552.045 143.237 549.798 143.554 548.283 143.846L548.477 144.181ZM491.002 183.395L491.611 183.427C491.695 182.899 492.161 182.074 493.042 180.988C493.915 179.913 495.169 178.612 496.775 177.143C499.986 174.204 504.59 170.607 510.329 166.811C521.81 159.216 537.8 150.846 556.222 145.357L555.942 145.043L555.661 144.729C537.06 150.271 520.953 158.708 509.406 166.346C503.631 170.166 498.988 173.792 495.739 176.765C494.114 178.252 492.834 179.579 491.933 180.688C491.041 181.788 490.495 182.706 490.392 183.363L491.002 183.395ZM430.539 131.254L431.094 131.403C432.064 130.203 433.721 128.528 436.064 126.6L435.562 126.397L435.061 126.194C432.687 128.148 430.991 129.859 429.984 131.104L430.539 131.254ZM414.118 100.227L413.511 100.18C412.599 104.114 415.757 114.77 435.117 126.639L435.562 126.397L436.008 126.154C416.827 114.395 413.874 103.942 414.725 100.274L414.118 100.227ZM435.562 126.397L436.064 126.6C437.858 125.123 440.05 123.502 442.638 121.836L442.182 121.6L441.726 121.364C439.104 123.052 436.882 124.695 435.061 126.194L435.562 126.397ZM414.118 100.227L413.563 100.377C416.625 104.174 426.53 113.756 441.767 121.86L442.182 121.6L442.597 121.34C427.495 113.308 417.679 103.806 414.673 100.078L414.118 100.227ZM442.182 121.6L442.638 121.836C444.752 120.475 447.128 119.085 449.766 117.72L449.358 117.457L448.949 117.194C446.276 118.577 443.867 119.985 441.726 121.364L442.182 121.6ZM414.118 100.227L413.875 100.552C418.345 101.668 431.741 106.676 448.902 117.694L449.358 117.457L449.813 117.221C432.591 106.164 419.057 101.076 414.361 99.9029L414.118 100.227ZM449.358 117.457L449.766 117.72C452.264 116.429 454.995 115.16 457.958 113.96L457.606 113.671L457.255 113.381C454.249 114.598 451.48 115.885 448.949 117.194L449.358 117.457ZM457.606 113.671L457.958 113.96C460.664 112.865 463.563 111.827 466.655 110.882L466.369 110.57L466.082 110.257C462.942 111.217 460 112.27 457.255 113.381L457.606 113.671ZM414.118 100.227L414.13 100.581C421.289 100.496 440.103 103.016 457.152 113.908L457.606 113.671L458.06 113.434C440.786 102.398 421.637 99.7847 414.105 99.8739L414.118 100.227ZM414.118 100.227L413.546 100.1C413.041 100.858 412.563 101.709 412.167 102.65L412.763 102.733L413.358 102.817C413.74 101.908 414.202 101.086 414.689 100.354L414.118 100.227ZM412.763 102.733L412.167 102.65C409.577 108.808 410.553 118.711 430.08 131.488L430.539 131.254L430.999 131.02C411.695 118.39 410.875 108.718 413.358 102.817L412.763 102.733ZM412.763 102.733L413.055 102.423C412.54 102.261 411.909 101.903 411.637 101.362C411.369 100.832 411.425 100.083 412.407 99.113L411.879 98.9345L411.35 98.7561C410.231 99.8613 410.083 100.81 410.461 101.559C410.833 102.298 411.695 102.801 412.47 103.044L412.763 102.733ZM414.118 100.227L414.338 100.557C415.705 100.254 417.235 100.009 418.928 99.8482L418.829 99.4993L418.729 99.1505C416.956 99.3191 415.345 99.5761 413.898 99.8974L414.118 100.227ZM418.829 99.4993L418.928 99.8482C428.907 98.8996 444.611 100.856 465.983 110.844L466.369 110.57L466.754 110.295C445.239 100.24 429.188 98.1563 418.729 99.1505L418.829 99.4993ZM411.879 98.9345L412.157 99.2494C412.921 99.0244 414.161 98.7825 415.369 98.7823C416.556 98.7821 417.637 99.0101 418.297 99.6752L418.829 99.4993L419.36 99.3235C418.415 98.3721 416.844 98.075 415.369 98.0752C413.916 98.0754 412.484 98.3594 411.6 98.6196L411.879 98.9345ZM411.879 98.9345L412.326 98.693L390.679 85.3345L390.232 85.576L389.785 85.8175L411.431 99.176L411.879 98.9345ZM491.002 183.395L490.482 183.582L498.944 191.39L499.463 191.202L499.982 191.015L491.521 183.207L491.002 183.395ZM555.942 145.043L555.347 145.129C555.573 145.651 555.402 146.684 554.336 148.329C553.282 149.955 551.39 152.124 548.31 154.885C542.15 160.406 531.272 168.265 512.961 178.836L513.394 179.086L513.827 179.336C532.176 168.743 543.117 160.845 549.34 155.268C552.45 152.48 554.39 150.265 555.483 148.577C556.564 146.909 556.857 145.7 556.536 144.957L555.942 145.043ZM513.394 179.086L513.81 179.345C522.77 174.565 541.564 167.369 563.631 173.193L563.886 172.871L564.14 172.55C541.366 166.539 522.033 173.995 512.979 178.826L513.394 179.086ZM555.942 145.043L556.21 145.361C558.319 144.766 564.01 143.871 569.613 145.111L569.832 144.78L570.052 144.45C564.038 143.12 557.985 144.074 555.673 144.725L555.942 145.043ZM569.832 144.78L569.232 144.711C568.965 145.482 568.766 147.499 569.998 149.632L570.579 149.52L571.16 149.409C570.003 147.405 570.202 145.515 570.433 144.85L569.832 144.78ZM569.832 144.78L570.026 145.116C571.45 144.842 575.384 144.364 579.45 144.699L579.536 144.349L579.623 143.999C575.329 143.645 571.2 144.144 569.639 144.445L569.832 144.78ZM633.28 160.724L633.081 160.39L585.309 169.87L585.508 170.205L585.707 170.539L633.479 161.059L633.28 160.724ZM585.508 170.205L585.028 169.985L511.13 223.85L511.61 224.07L512.09 224.289L585.988 170.424L585.508 170.205ZM585.508 170.205L586.024 170.015L580.799 165.275L580.283 165.465L579.766 165.654L584.991 170.394L585.508 170.205ZM580.283 165.465L580.748 165.235L577.307 162.912L576.842 163.142L576.376 163.372L579.817 165.694L580.283 165.465ZM634.773 152.968L634.166 152.918L633.42 155.934L634.026 155.984L634.633 156.034L635.379 153.018L634.773 152.968ZM634.026 155.984L633.416 155.952L632.67 160.692L633.28 160.724L633.89 160.756L634.636 156.016L634.026 155.984ZM580.283 165.465L580.462 165.803L634.205 156.322L634.026 155.984L633.847 155.646L580.104 165.126L580.283 165.465ZM511.61 224.07L511.711 223.721L502.753 222.859L502.653 223.208L502.552 223.557L511.509 224.418L511.61 224.07ZM502.653 223.208L502.739 222.858L497.514 222.427L497.428 222.777L497.341 223.127L502.566 223.558L502.653 223.208ZM580.283 165.465L579.799 165.248L502.169 222.991L502.653 223.208L503.137 223.425L580.766 165.681L580.283 165.465ZM500.672 220.341L500.187 220.125L496.942 222.561L497.428 222.777L497.913 222.992L501.158 220.556L500.672 220.341ZM500.672 220.341L501.159 220.127L496.422 216.53L495.935 216.744L495.447 216.958L500.185 220.555L500.672 220.341ZM500.659 213.155L500.117 213.32C501.395 214.716 502.942 216.009 504.76 217.167L505.214 216.93L505.668 216.692C503.922 215.581 502.433 214.337 501.2 212.99L500.659 213.155ZM495.935 216.744L496.422 216.958L501.146 213.369L500.659 213.155L500.171 212.941L495.447 216.53L495.935 216.744ZM513.394 179.086L512.979 178.826C498.866 186.356 493.231 197.734 496.367 207.066L496.968 206.998L497.569 206.931C494.513 197.837 500.013 186.707 513.81 179.345L513.394 179.086ZM496.968 206.998L496.367 207.066C497.115 209.291 498.362 211.403 500.117 213.32L500.659 213.155L501.2 212.99C499.507 211.14 498.296 209.095 497.569 206.931L496.968 206.998ZM495.935 216.744L495.988 216.392C494.023 216.293 491.34 215.841 489.102 214.836C486.883 213.84 485.084 212.295 484.846 209.969L484.235 209.99L483.623 210.01C483.883 212.555 485.874 214.283 488.35 215.394C490.808 216.497 493.726 216.987 495.881 217.096L495.935 216.744ZM484.235 209.99L484.846 209.969C484.786 209.379 484.826 208.737 484.987 208.038L484.38 207.992L483.773 207.945C483.602 208.685 483.558 209.372 483.623 210.01L484.235 209.99ZM484.235 209.99L484.386 209.647C483.595 209.531 482.515 209.194 481.77 208.565C481.039 207.947 480.59 207.01 481.145 205.638L480.549 205.558L479.952 205.477C479.33 207.016 479.809 208.16 480.758 208.963C481.694 209.755 483.046 210.179 484.083 210.332L484.235 209.99ZM486.628 206.393L486.823 206.728C487.956 206.509 489.292 206.323 490.649 206.26L490.6 205.908L490.552 205.556C489.073 205.624 487.638 205.824 486.433 206.058L486.628 206.393ZM490.6 205.908L490.649 206.26C492.87 206.158 495.041 206.386 496.535 207.248L496.968 206.998L497.401 206.749C495.542 205.675 492.938 205.445 490.552 205.556L490.6 205.908ZM482.448 204.294L482.667 204.624C484.017 204.325 485.612 204.136 486.981 204.29C487.655 204.366 488.265 204.524 488.775 204.79C489.284 205.056 489.723 205.444 490.013 206.008L490.6 205.908L491.188 205.807C490.844 205.138 490.297 204.631 489.596 204.265C488.896 203.9 488.072 203.693 487.216 203.596C485.525 203.406 483.678 203.643 482.228 203.964L482.448 204.294ZM508.458 214.494L507.973 214.278L500.187 220.125L500.672 220.341L501.158 220.556L508.944 214.709L508.458 214.494ZM508.458 214.494L508.961 214.292C503.848 210.039 496.689 198.639 509.143 187.199L508.624 187.011L508.106 186.822C495.311 198.576 502.659 210.29 507.955 214.695L508.458 214.494ZM560.367 175.513L559.882 175.298L507.973 214.278L508.458 214.494L508.944 214.709L560.852 175.729L560.367 175.513ZM508.624 187.011L509.128 187.212C512.644 184.28 519.437 180.182 528.345 177.448C537.241 174.719 548.214 173.357 560.159 175.846L560.367 175.513L560.575 175.181C548.228 172.608 536.892 174.025 527.771 176.824C518.663 179.619 511.73 183.8 508.121 186.809L508.624 187.011ZM576.842 163.142L577.02 163.48L585.033 162.073L584.855 161.735L584.676 161.396L576.664 162.804L576.842 163.142ZM584.855 161.735L585.424 161.604C584.206 159.829 582.959 156.946 583.178 154.089C583.396 151.235 585.068 148.465 589.57 146.802L589.24 146.504L588.91 146.206C583.945 148.041 582.182 151.077 581.954 154.058C581.726 157.037 583.02 160.021 584.285 161.865L584.855 161.735ZM584.855 161.735L585.033 162.073L630.372 154.11L630.194 153.772L630.016 153.434L584.676 161.396L584.855 161.735ZM630.194 153.772L630.372 154.11L634.951 153.306L634.773 152.968L634.594 152.63L630.016 153.434L630.194 153.772ZM589.24 146.504L589.57 146.802C595.234 144.709 602.219 145.17 609.407 146.865C616.583 148.556 623.81 151.443 629.826 154.055L630.194 153.772L630.562 153.489C624.535 150.873 617.202 147.939 609.87 146.21C602.551 144.485 595.079 143.927 588.91 146.206L589.24 146.504ZM579.536 144.349L579.45 144.699C581.132 144.838 585.416 145.457 588.9 146.798L589.24 146.504L589.58 146.21C585.898 144.793 581.424 144.148 579.623 143.999L579.536 144.349ZM576.842 163.142L576.356 162.926L571.166 166.824L571.651 167.04L572.137 167.255L577.327 163.357L576.842 163.142ZM571.651 167.04L571.166 166.824L559.882 175.298L560.367 175.513L560.852 175.729L572.137 167.255L571.651 167.04ZM589.24 146.504L588.996 146.18C584.649 147.271 578.336 149.82 574.223 153.827L574.75 154.007L575.277 154.187C579.237 150.329 585.331 147.87 589.484 146.828L589.24 146.504ZM574.75 154.007L574.223 153.827C570.736 157.225 568.841 161.664 571.055 167.12L571.651 167.04L572.247 166.959C570.11 161.691 571.941 157.438 575.277 154.187L574.75 154.007ZM570.579 149.52L569.984 149.604C570.298 150.348 571.582 152.261 574.27 154.226L574.75 154.007L575.231 153.788C572.649 151.9 571.445 150.079 571.174 149.437L570.579 149.52ZM641.491 163.741L641.819 163.443L637.714 161.934L637.385 162.233L637.056 162.531L641.162 164.039L641.491 163.741ZM637.385 162.233L637.714 161.934L633.609 160.426L633.28 160.724L632.951 161.023L637.056 162.531L637.385 162.233ZM637.385 162.233L637.176 161.9L589.03 172.027L589.24 172.359L589.449 172.691L637.595 162.565L637.385 162.233ZM511.61 224.07L511.132 224.291L514.118 226.445L514.596 226.224L515.074 226.003L512.088 223.849L511.61 224.07ZM514.596 226.224L514.118 226.445L517.103 228.6L517.582 228.379L518.06 228.158L515.074 226.003L514.596 226.224ZM589.24 172.359L588.762 172.138L514.118 226.003L514.596 226.224L515.074 226.445L589.718 172.58L589.24 172.359ZM592.972 174.514L592.553 174.772L639.579 200.196L639.998 199.938L640.416 199.68L593.391 174.256L592.972 174.514ZM641.491 163.741L641.149 164.034L677.724 178.254L678.066 177.961L678.408 177.668L641.833 163.448L641.491 163.741ZM517.582 228.379L517.092 228.591L548.442 252.723L548.932 252.51L549.422 252.298L518.072 228.167L517.582 228.379ZM517.582 228.379L518.058 228.601L523.395 224.788L522.919 224.565L522.443 224.343L517.105 228.157L517.582 228.379ZM522.919 224.565L522.438 224.784L555.916 249.282L556.396 249.063L556.877 248.844L523.4 224.346L522.919 224.565ZM522.919 224.565L523.395 224.788L526.336 222.686L525.86 222.464L525.384 222.242L522.443 224.343L522.919 224.565ZM525.86 222.464L525.391 222.691L559.66 246.274L560.129 246.047L560.598 245.819L526.329 222.237L525.86 222.464ZM587.531 178.401L588.008 178.623L593.448 174.736L592.972 174.514L592.496 174.292L587.055 178.179L587.531 178.401ZM587.531 178.401L587.098 178.651L631.985 204.564L632.418 204.314L632.851 204.064L587.964 178.151L587.531 178.401ZM592.972 174.514L593.192 174.844L599.004 173.553L598.784 173.223L598.564 172.893L592.752 174.184L592.972 174.514ZM635.022 165.177L635.241 165.507L641.711 164.071L641.491 163.741L641.271 163.411L634.802 164.847L635.022 165.177ZM635.022 165.177L634.652 165.459L671.725 181.69L672.095 181.409L672.465 181.127L635.392 164.896L635.022 165.177ZM525.86 222.464L526.336 222.686L528.733 220.974L528.256 220.752L527.78 220.53L525.384 222.242L525.86 222.464ZM528.256 220.752L528.733 220.974L588.008 178.623L587.531 178.401L587.055 178.179L527.78 220.53L528.256 220.752ZM528.256 220.752L527.794 220.984L562.957 244.379L563.419 244.147L563.882 243.915L528.719 220.52L528.256 220.752ZM598.784 173.223L599.004 173.553L630.794 166.495L630.574 166.165L630.354 165.835L598.564 172.893L598.784 173.223ZM630.574 166.165L630.794 166.495L635.241 165.507L635.022 165.177L634.802 164.847L630.354 165.835L630.574 166.165ZM630.574 166.165L630.192 166.441L667.981 183.84L668.363 183.563L668.744 183.287L630.956 165.888L630.574 166.165ZM528.256 220.752L528.207 221.104L534.701 221.406L534.75 221.053L534.799 220.701L528.305 220.4L528.256 220.752ZM534.75 221.053L534.298 221.292L567.142 241.976L567.593 241.737L568.045 241.498L535.201 220.814L534.75 221.053ZM534.75 221.053L535.221 221.279L592.697 181.203L592.226 180.978L591.754 180.752L534.278 220.828L534.75 221.053ZM630.574 166.165L629.965 166.199L630.431 168.946L631.041 168.912L631.65 168.877L631.183 166.13L630.574 166.165ZM598.784 173.223L598.381 173.49L602.451 175.539L602.854 175.273L603.257 175.006L599.186 172.957L598.784 173.223ZM631.041 168.912L630.818 168.583L602.631 174.944L602.854 175.273L603.077 175.602L631.263 169.241L631.041 168.912ZM570.579 240.014L571.012 239.764C567.01 237.453 562.741 232.876 561.068 227.647C559.397 222.426 560.33 216.61 566.59 211.785L566.1 211.573L565.61 211.361C559.085 216.39 558.151 222.425 559.863 227.776C561.573 233.118 565.937 237.834 570.146 240.264L570.579 240.014ZM566.1 211.573L566.59 211.785C570.212 208.994 576.652 204.648 586.667 202.638C596.646 200.636 610.306 200.927 628.474 207.563L628.801 207.264L629.129 206.965C610.721 200.242 596.672 199.882 586.265 201.97C575.894 204.051 569.271 208.54 565.61 211.361L566.1 211.573ZM602.854 175.273L602.44 175.533L635.504 193.073L635.919 192.813L636.333 192.553L603.268 175.013L602.854 175.273ZM633.28 177.961L632.95 177.663C630.729 178.484 628.255 180.242 627.909 182.859C627.563 185.477 629.354 188.895 635.452 193.042L635.919 192.813L636.385 192.584C630.419 188.527 628.817 185.286 629.13 182.912C629.444 180.537 631.683 178.971 633.61 178.259L633.28 177.961ZM631.041 168.912L630.651 169.184L651.906 179.321L652.296 179.049L652.686 178.776L631.431 168.639L631.041 168.912ZM633.28 177.961L633.655 178.24C635.64 177.351 642.283 176.141 651.992 179.355L652.296 179.049L652.601 178.742C642.575 175.423 635.375 176.574 632.904 177.682L633.28 177.961ZM635.919 192.813L635.504 193.073L639.783 195.343L640.197 195.083L640.612 194.822L636.333 192.553L635.919 192.813ZM640.197 195.083L639.783 195.343L644.062 197.613L644.476 197.353L644.891 197.092L640.612 194.822L640.197 195.083ZM634.773 180.547L634.34 180.297C631.321 182.039 628.803 187.348 639.717 195.302L640.197 195.083L640.678 194.863C629.948 187.044 632.823 182.172 635.206 180.797L634.773 180.547ZM652.296 179.049L651.906 179.321L655.994 181.271L656.384 180.998L656.774 180.726L652.686 178.776L652.296 179.049ZM656.384 180.998L655.994 181.271L664.987 185.559L665.377 185.287L665.767 185.014L656.774 180.726L656.384 180.998ZM634.773 180.547L635.251 180.767C636.962 179.53 643.67 177.577 656.101 181.312L656.384 180.998L656.667 180.685C643.96 176.867 636.517 178.718 634.294 180.326L634.773 180.547ZM574.311 237.859L574.827 237.669C571.961 235.077 568.442 230.681 567.217 225.942C565.993 221.206 567.07 216.178 573.271 212.242L572.818 212.004L572.365 211.766C565.829 215.915 564.75 221.189 566.006 226.047C567.261 230.902 570.856 235.392 573.795 238.049L574.311 237.859ZM572.818 212.004L573.271 212.242C581.158 207.236 589.134 204.766 597.579 204.323C606.041 203.878 615.075 205.462 625.086 208.683L625.384 208.374L625.683 208.066C615.564 204.81 606.276 203.155 597.468 203.618C588.642 204.082 580.4 206.666 572.365 211.766L572.818 212.004ZM480.549 205.558L481.145 205.638C481.333 205.175 481.903 204.794 482.667 204.624L482.448 204.294L482.228 203.964C481.079 204.219 480.231 204.789 479.952 205.477L480.549 205.558ZM484.38 207.992L484.987 208.038C485.127 207.428 485.833 206.92 486.823 206.728L486.628 206.393L486.433 206.058C484.98 206.339 483.972 207.08 483.773 207.945L484.38 207.992Z" fill="currentColor" stroke-opacity="0.5" />

<path d="M113.358 218.903V236.122M683.916 191.35L539.766 273.145L530.271 285.199L514.734 288.643C473.589 313.038 388.02 363.378 374.9 369.577C361.779 375.777 344.689 372.16 337.783 369.577C266.14 328.249 121.817 244.904 117.674 242.149C113.531 239.394 113.07 238.131 113.358 237.844V236.122M683.916 191.35V170.686M683.916 191.35L688.13 193.752C691.608 195.734 691.612 200.747 688.136 202.734L381.12 378.284C364.464 387.807 343.982 387.671 327.455 377.927L109.025 249.145C106.029 247.379 105.595 243.22 108.161 240.874L113.358 236.122" stroke="currentColor" stroke-width="2"/>

<path d="M83.7529 29.0859C96.9962 29.086 109.014 31.2312 117.742 34.7227C122.105 36.4677 125.675 38.5613 128.165 40.916C130.656 43.2719 132.105 45.9317 132.105 48.7871V54.2363L143.591 55.5137C148.806 56.0932 153.578 58.7202 156.855 62.8174L164.75 72.6855C167.975 76.7171 169.732 81.7267 169.732 86.8896V105.644C169.732 113.049 168.064 120.359 164.852 127.031L164.203 128.378C161.499 133.994 156.609 138.254 150.675 140.161L139.062 143.894L138.943 143.932L138.82 143.92L123.947 142.48C119.101 142.011 115.403 137.938 115.403 133.069V127.492L115.688 127.316L130.905 117.896V81.6719L121.381 80.9004C118.004 80.6264 115.403 77.8057 115.403 74.418V64.7832L115.67 64.6045L130.905 54.4473V48.7871C130.905 46.3679 129.683 44.0017 127.341 41.7871C124.998 39.5714 121.575 37.5485 117.296 35.8369C108.741 32.4152 96.8824 30.2852 83.7529 30.2852C70.6231 30.2852 58.7635 32.4151 50.209 35.8369C45.9303 37.5484 42.5079 39.5715 40.165 41.7871C37.8234 44.0017 36.5996 46.3679 36.5996 48.7871V143.424C36.5996 145.712 37.812 147.962 40.1543 150.076C42.4964 152.19 45.9196 154.121 50.2002 155.756C58.7575 159.023 70.6203 161.057 83.7529 161.057C96.8853 161.057 108.747 159.023 117.305 155.756C121.585 154.121 125.008 152.19 127.351 150.076C129.693 147.962 130.905 145.712 130.905 143.424H132.105C132.105 146.17 130.646 148.718 128.155 150.967C125.665 153.215 122.094 155.212 117.733 156.877C109.008 160.209 96.9934 162.257 83.7529 162.257C70.5124 162.257 58.4982 160.209 49.7725 156.877C45.4117 155.212 41.8412 153.215 39.3506 150.967C36.86 148.718 35.4004 146.17 35.4004 143.424V48.7871C35.4004 45.9317 36.8497 43.2719 39.3408 40.916C41.8307 38.5613 45.4011 36.4677 49.7637 34.7227C58.4922 31.2313 70.5097 29.0859 83.7529 29.0859ZM116.603 74.418C116.603 77.1805 118.724 79.4806 121.478 79.7041L132.502 80.5977C138.944 81.1201 143.905 86.5009 143.905 92.9639V119.709C143.905 126.32 138.077 131.414 131.525 130.529L116.603 128.513V133.069C116.603 137.32 119.832 140.876 124.062 141.286L138.735 142.705L144.404 139.217C152.52 134.223 157.464 125.376 157.464 115.847V96.0088C157.464 90.4437 155.676 85.0256 152.363 80.5537L147.21 73.5977C144.525 69.9735 140.407 67.6849 135.911 67.3203L116.603 65.7539V74.418ZM117.772 64.6445L136.008 66.124C140.848 66.5165 145.284 68.9805 148.175 72.8828L153.327 79.8389C156.793 84.5174 158.664 90.1865 158.664 96.0088V115.847C158.664 125.792 153.504 135.027 145.033 140.239L143.418 141.232L150.308 139.019C155.928 137.212 160.561 133.177 163.122 127.857L163.771 126.511C166.905 120.001 168.532 112.869 168.532 105.644V86.8896C168.532 81.9992 166.868 77.2544 163.812 73.4355L155.918 63.5674C152.839 59.7186 148.357 57.2504 143.458 56.7061L131.649 55.3936L117.772 64.6445ZM117.74 127.455L131.686 129.34C137.342 130.104 142.392 125.862 142.69 120.236L131.633 118.854L117.74 127.455ZM132.105 117.704L142.705 119.029V92.9639C142.705 87.1259 138.223 82.2657 132.404 81.7939L132.105 81.7695V117.704ZM84 35.6855C106.091 35.6855 124 41.5058 124 48.6855C124 55.8652 106.091 61.6855 84 61.6855C61.9086 61.6855 44 55.8652 44 48.6855C44 41.5058 61.9086 35.6855 84 35.6855ZM84 36.8857C73.045 36.8857 63.1761 38.3308 56.0869 40.6348C52.5358 41.7889 49.7489 43.1373 47.875 44.5771C45.984 46.0302 45.2002 47.4292 45.2002 48.6855C45.2002 49.9419 45.984 51.3409 47.875 52.7939C49.7489 54.2338 52.5358 55.5822 56.0869 56.7363C63.1761 59.0403 73.045 60.4854 84 60.4854C94.955 60.4854 104.824 59.0403 111.913 56.7363C115.464 55.5822 118.251 54.2338 120.125 52.7939C122.016 51.3409 122.8 49.9419 122.8 48.6855C122.8 47.4292 122.016 46.0302 120.125 44.5771C118.251 43.1373 115.464 41.7889 111.913 40.6348C104.824 38.3308 94.955 36.8857 84 36.8857Z" fill="currentColor" stroke-width="5" stroke-opacity="0.5"/>

<path class="hover-line" d="M83.7529 29.0859C96.9962 29.086 109.014 31.2312 117.742 34.7227C122.105 36.4677 125.675 38.5613 128.165 40.916C130.656 43.2719 132.105 45.9317 132.105 48.7871V54.2363L143.591 55.5137C148.806 56.0932 153.578 58.7202 156.855 62.8174L164.75 72.6855C167.975 76.7171 169.732 81.7267 169.732 86.8896V105.644C169.732 113.049 168.064 120.359 164.852 127.031L164.203 128.378C161.499 133.994 156.609 138.254 150.675 140.161L139.062 143.894L138.943 143.932L138.82 143.92L123.947 142.48C119.101 142.011 115.403 137.938 115.403 133.069V127.492L115.688 127.316L130.905 117.896V81.6719L121.381 80.9004C118.004 80.6264 115.403 77.8057 115.403 74.418V64.7832L115.67 64.6045L130.905 54.4473V48.7871C130.905 46.3679 129.683 44.0017 127.341 41.7871C124.998 39.5714 121.575 37.5485 117.296 35.8369C108.741 32.4152 96.8824 30.2852 83.7529 30.2852C70.6231 30.2852 58.7635 32.4151 50.209 35.8369C45.9303 37.5484 42.5079 39.5715 40.165 41.7871C37.8234 44.0017 36.5996 46.3679 36.5996 48.7871V143.424C36.5996 145.712 37.812 147.962 40.1543 150.076C42.4964 152.19 45.9196 154.121 50.2002 155.756C58.7575 159.023 70.6203 161.057 83.7529 161.057C96.8853 161.057 108.747 159.023 117.305 155.756C121.585 154.121 125.008 152.19 127.351 150.076C129.693 147.962 130.905 145.712 130.905 143.424H132.105C132.105 146.17 130.646 148.718 128.155 150.967C125.665 153.215 122.094 155.212 117.733 156.877C109.008 160.209 96.9934 162.257 83.7529 162.257C70.5124 162.257 58.4982 160.209 49.7725 156.877C45.4117 155.212 41.8412 153.215 39.3506 150.967C36.86 148.718 35.4004 146.17 35.4004 143.424V48.7871C35.4004 45.9317 36.8497 43.2719 39.3408 40.916C41.8307 38.5613 45.4011 36.4677 49.7637 34.7227C58.4922 31.2313 70.5097 29.0859 83.7529 29.0859ZM116.603 74.418C116.603 77.1805 118.724 79.4806 121.478 79.7041L132.502 80.5977C138.944 81.1201 143.905 86.5009 143.905 92.9639V119.709C143.905 126.32 138.077 131.414 131.525 130.529L116.603 128.513V133.069C116.603 137.32 119.832 140.876 124.062 141.286L138.735 142.705L144.404 139.217C152.52 134.223 157.464 125.376 157.464 115.847V96.0088C157.464 90.4437 155.676 85.0256 152.363 80.5537L147.21 73.5977C144.525 69.9735 140.407 67.6849 135.911 67.3203L116.603 65.7539V74.418ZM117.772 64.6445L136.008 66.124C140.848 66.5165 145.284 68.9805 148.175 72.8828L153.327 79.8389C156.793 84.5174 158.664 90.1865 158.664 96.0088V115.847C158.664 125.792 153.504 135.027 145.033 140.239L143.418 141.232L150.308 139.019C155.928 137.212 160.561 133.177 163.122 127.857L163.771 126.511C166.905 120.001 168.532 112.869 168.532 105.644V86.8896C168.532 81.9992 166.868 77.2544 163.812 73.4355L155.918 63.5674C152.839 59.7186 148.357 57.2504 143.458 56.7061L131.649 55.3936L117.772 64.6445ZM117.74 127.455L131.686 129.34C137.342 130.104 142.392 125.862 142.69 120.236L131.633 118.854L117.74 127.455ZM132.105 117.704L142.705 119.029V92.9639C142.705 87.1259 138.223 82.2657 132.404 81.7939L132.105 81.7695V117.704ZM84 35.6855C106.091 35.6855 124 41.5058 124 48.6855C124 55.8652 106.091 61.6855 84 61.6855C61.9086 61.6855 44 55.8652 44 48.6855C44 41.5058 61.9086 35.6855 84 35.6855ZM84 36.8857C73.045 36.8857 63.1761 38.3308 56.0869 40.6348C52.5358 41.7889 49.7489 43.1373 47.875 44.5771C45.984 46.0302 45.2002 47.4292 45.2002 48.6855C45.2002 49.9419 45.984 51.3409 47.875 52.7939C49.7489 54.2338 52.5358 55.5822 56.0869 56.7363C63.1761 59.0403 73.045 60.4854 84 60.4854C94.955 60.4854 104.824 59.0403 111.913 56.7363C115.464 55.5822 118.251 54.2338 120.125 52.7939C122.016 51.3409 122.8 49.9419 122.8 48.6855C122.8 47.4292 122.016 46.0302 120.125 44.5771C118.251 43.1373 115.464 41.7889 111.913 40.6348C104.824 38.3308 94.955 36.8857 84 36.8857Z" fill="currentColor" stroke-width="5"/>
<path d="M649.544 96.9077L655.154 94.4536M649.544 96.9077L645.687 102.167M649.544 96.9077L663.755 108.128M649.544 96.9077L505.45 17.1495M504.398 28.514L500.002 26.0886L478.104 14.0082L476 8.39863L479.506 2.78912L485.115 0.685547L488.972 2.78912L506.852 12.6518M479.506 2.78912L501.331 14.8696M666.488 108.829L669.528 112.686L662.867 111.099L647.44 107.426L504.398 28.514M669.528 112.686L664.971 109.087M662.867 109.746L663.966 110.231L669.528 112.686M506.852 12.6518L510.873 14.8696L655.154 94.4536L665.381 107.426L665.934 108.127M476 8.39863L497.227 20.1285M645.687 102.167L647.44 107.426M645.687 102.167L662.867 109.746M645.687 102.167L501.944 22.7351L501.331 22.3963M665.381 107.426L663.755 108.128M663.755 108.128L662.867 109.746M664.971 109.087L664.363 108.607L663.755 108.128M662.867 109.746V111.099M666.488 108.829L664.971 109.087M666.488 108.829L665.934 108.127M664.971 109.087L663.966 110.231M665.934 108.127L664.363 108.607M497.227 20.1285L500.002 26.0886M497.227 20.1285L501.331 14.8696M497.227 20.1285L501.331 22.3963M501.331 14.8696L506.852 12.6518M501.331 14.8696L505.45 17.1495M510.873 14.8696L505.45 17.1495M505.45 17.1495L501.331 22.3963M501.331 22.3963L504.398 28.514" stroke="currentColor" stroke-width="2"/>
</svg>