<svg width="704" height="371" viewBox="0 0 704 371" fill="none" xmlns="http://www.w3.org/2000/svg">
<rect x="1.64357" width="377.388" height="156.078" rx="11" transform="matrix(0.821787 -0.474418 0.821787 0.474418 40.0157 177.434)" stroke="currentColor" stroke-width="2"/>
<path d="M472.41 94.8502L471.588 94.3758L179.535 262.978L180.357 263.452L181.179 263.927L473.232 95.3247L472.41 94.8502ZM160.634 263.452L161.456 262.978L51.272 199.369L50.4503 199.843L49.6285 200.318L159.812 263.927L160.634 263.452ZM50.4503 188.457L51.272 188.932L57.4324 185.375L56.6106 184.901L55.7888 184.427L49.6285 187.983L50.4503 188.457ZM465.817 79.6578L464.995 80.1323L471.588 83.9386L472.41 83.4642L473.232 82.9898L466.638 79.1834L465.817 79.6578ZM180.357 263.452L179.535 262.978C174.543 265.86 166.448 265.86 161.456 262.978L160.634 263.452L159.812 263.927C165.712 267.333 175.278 267.333 181.179 263.927L180.357 263.452ZM472.41 94.8502L473.232 95.3247C479.132 91.9185 479.132 86.396 473.232 82.9898L472.41 83.4642L471.588 83.9386C476.581 86.8208 476.581 91.4937 471.588 94.3758L472.41 94.8502ZM50.4503 199.843L51.272 199.369C46.2796 196.487 46.2796 191.814 51.272 188.932L50.4503 188.457L49.6285 187.983C43.7283 191.389 43.7283 196.912 49.6285 200.318L50.4503 199.843Z" fill="currentColor"/>
<path d="M471.544 304.338L470.722 303.863L360.538 367.472L361.36 367.947L362.182 368.421L472.366 304.812L471.544 304.338ZM341.637 367.947L342.459 367.472L232.275 303.863L231.454 304.338L230.632 304.812L340.816 368.421L341.637 367.947ZM231.454 292.952L232.275 293.426L238.436 289.87L237.614 289.395L236.792 288.921L230.632 292.477L231.454 292.952ZM464.951 289.145L464.129 289.62L470.722 293.426L471.544 292.952L472.366 292.477L465.772 288.671L464.951 289.145ZM361.36 367.947L360.538 367.472C355.546 370.354 347.452 370.354 342.459 367.472L341.637 367.947L340.816 368.421C346.716 371.827 356.282 371.827 362.182 368.421L361.36 367.947ZM471.544 304.338L472.366 304.812C478.266 301.406 478.266 295.883 472.366 292.477L471.544 292.952L470.722 293.426C475.715 296.308 475.715 300.981 470.722 303.863L471.544 304.338ZM231.454 304.338L232.275 303.863C227.283 300.981 227.283 296.308 232.275 293.426L231.454 292.952L230.632 292.477C224.732 295.883 224.732 301.406 230.632 304.812L231.454 304.338Z" fill="currentColor"/>
<path d="M653.413 199.345L652.591 198.871L542.408 262.48L543.229 262.954L544.051 263.429L654.235 199.82L653.413 199.345ZM523.507 262.954L524.328 262.48L414.145 198.871L413.323 199.345L412.501 199.82L522.685 263.429L523.507 262.954ZM413.323 187.959L414.145 188.434L420.305 184.877L419.483 184.403L418.661 183.929L412.501 187.485L413.323 187.959ZM646.82 184.153L645.998 184.627L652.591 188.434L653.413 187.959L654.235 187.485L647.642 183.679L646.82 184.153ZM543.229 262.954L542.408 262.48C537.415 265.362 529.321 265.362 524.328 262.48L523.507 262.954L522.685 263.429C528.585 266.835 538.151 266.835 544.051 263.429L543.229 262.954ZM653.413 199.345L654.235 199.82C660.135 196.414 660.135 190.891 654.235 187.485L653.413 187.959L652.591 188.434C657.584 191.316 657.584 195.989 652.591 198.871L653.413 199.345ZM413.323 199.345L414.145 198.871C409.152 195.989 409.152 191.316 414.145 188.434L413.323 187.959L412.501 187.485C406.601 190.891 406.601 196.414 412.501 199.82L413.323 199.345Z" fill="currentColor"/>
<rect x="1.64357" width="156.078" height="156.078" rx="11" transform="matrix(0.821787 -0.474418 0.821787 0.474418 403.754 177.432)" stroke="currentColor" stroke-width="2"/>
<rect x="1.64357" width="156.078" height="156.078" rx="11" transform="matrix(0.821787 -0.474418 0.821787 0.474418 221.885 282.426)" stroke="currentColor" stroke-width="2"/>
<path d="M488.639 170.323C487.278 169.537 487.278 168.263 488.639 167.477L496.239 163.09C497.6 162.304 499.808 162.304 501.17 163.09L540.511 185.801C544.375 188.032 546.864 190.472 547.976 193.12C549.108 195.756 548.913 198.404 547.391 201.063C545.868 203.722 543.077 206.224 539.018 208.567C535.407 210.652 531.494 212.179 527.278 213.148C523.062 214.094 518.788 214.308 514.455 213.79C511.029 213.373 507.723 212.404 504.539 210.884C503.06 210.178 503.08 208.898 504.437 208.114L512.196 203.635C513.534 202.862 515.664 202.885 517.295 203.438C518.064 203.699 518.844 203.899 519.637 204.038C521.374 204.32 523.082 204.325 524.76 204.055C526.439 203.762 528.02 203.187 529.503 202.331C531.064 201.429 532.05 200.477 532.46 199.474C532.87 198.449 532.704 197.396 531.962 196.314C531.22 195.232 529.893 194.139 527.981 193.035L488.639 170.323Z" fill="currentColor"/>
<path d="M571.044 149.035C572.827 149.585 573.041 150.95 571.702 151.825L565.478 155.889C564.324 156.643 562.385 156.737 560.685 156.513C560.322 156.466 559.951 156.431 559.57 156.41C558.125 156.32 556.642 156.444 555.12 156.782C553.597 157.098 552.114 157.672 550.67 158.506C548.737 159.621 547.518 160.799 547.01 162.038C546.483 163.267 546.893 164.269 548.24 165.047C549.313 165.666 550.65 165.943 552.251 165.875C553.851 165.807 555.92 165.3 558.457 164.354L568.235 160.602C573.505 158.596 578.209 157.548 582.347 157.458C586.484 157.368 590.173 158.258 593.413 160.129C596.36 161.83 598.078 163.824 598.566 166.112C599.073 168.388 598.449 170.754 596.692 173.21C594.935 175.644 592.105 177.987 588.202 180.241C582.249 183.678 576.267 185.7 570.255 186.308C565.526 186.769 561.14 186.39 557.099 185.17C555.286 184.623 555.068 183.238 556.436 182.36L563.504 177.828C564.659 177.087 566.56 176.998 568.214 177.281C569.563 177.511 570.946 177.546 572.363 177.385C574.725 177.103 577.018 176.32 579.243 175.035C581.429 173.773 582.766 172.517 583.254 171.266C583.742 169.993 583.322 168.962 581.995 168.173C580.844 167.531 579.438 167.272 577.779 167.396C576.101 167.509 574.091 168.016 571.749 168.917L562.409 172.517C557.14 174.545 552.348 175.554 548.035 175.542C543.741 175.52 539.916 174.54 536.558 172.602C533.67 170.934 531.962 169.047 531.435 166.94C530.928 164.821 531.533 162.613 533.25 160.314C534.987 158.005 537.778 155.74 541.623 153.52C547.303 150.241 552.973 148.354 558.633 147.858C563.074 147.462 567.211 147.854 571.044 149.035Z" fill="currentColor"/>

<line y1="-1" x2="155.971" y2="-1" transform="matrix(-0.821787 -0.474418 0.821787 -0.474418 230.252 216.65)" stroke="currentColor" stroke-width="2"/>
<line y1="-1" x2="155.971" y2="-1" transform="matrix(-0.821787 -0.474418 0.821787 -0.474418 199.075 234.648)" stroke="currentColor" stroke-width="2"/>
<line y1="-1" x2="155.971" y2="-1" transform="matrix(-0.821787 -0.474418 0.821787 -0.474418 219.86 222.65)" stroke="currentColor" stroke-width="2"/>
<line y1="-1" x2="155.971" y2="-1" transform="matrix(-0.821787 -0.474418 0.821787 -0.474418 188.682 240.648)" stroke="currentColor" stroke-width="2"/>
<line y1="-1" x2="155.971" y2="-1" transform="matrix(-0.821787 -0.474418 0.821787 -0.474418 209.467 228.648)" stroke="currentColor" stroke-width="2"/>
<line y1="-1" x2="155.971" y2="-1" transform="matrix(-0.821787 -0.474418 0.821787 -0.474418 178.29 246.648)" stroke="currentColor" stroke-width="2"/>
<line y1="-1" x2="155.971" y2="-1" transform="matrix(-0.821787 -0.474418 0.821787 -0.474418 290.876 181.652)" stroke="currentColor" stroke-opacity="0.8" stroke-width="2"/>
<line y1="-1" x2="155.971" y2="-1" transform="matrix(-0.821787 -0.474418 0.821787 -0.474418 259.698 199.65)" stroke="currentColor" stroke-opacity="0.8" stroke-width="2"/>
<line y1="-1" x2="155.971" y2="-1" transform="matrix(-0.821787 -0.474418 0.821787 -0.474418 280.483 187.652)" stroke="currentColor" stroke-opacity="0.8" stroke-width="2"/>
<line y1="-1" x2="155.971" y2="-1" transform="matrix(-0.821787 -0.474418 0.821787 -0.474418 249.305 205.65)" stroke="currentColor" stroke-opacity="0.8" stroke-width="2"/>
<line y1="-1" x2="155.971" y2="-1" transform="matrix(-0.821787 -0.474418 0.821787 -0.474418 270.091 193.65)" stroke="currentColor" stroke-opacity="0.8" stroke-width="2"/>
<line y1="-1" x2="155.971" y2="-1" transform="matrix(-0.821787 -0.474418 0.821787 -0.474418 238.913 211.65)" stroke="currentColor" stroke-opacity="0.8" stroke-width="2"/>
<line y1="-1" x2="155.971" y2="-1" transform="matrix(-0.821787 -0.474418 0.821787 -0.474418 351.499 146.656)" stroke="currentColor" stroke-opacity="0.6" stroke-width="2"/>
<line y1="-1" x2="155.971" y2="-1" transform="matrix(-0.821787 -0.474418 0.821787 -0.474418 320.321 164.654)" stroke="currentColor" stroke-opacity="0.6" stroke-width="2"/>
<line y1="-1" x2="155.971" y2="-1" transform="matrix(-0.821787 -0.474418 0.821787 -0.474418 341.106 152.656)" stroke="currentColor" stroke-opacity="0.6" stroke-width="2"/>
<line y1="-1" x2="155.971" y2="-1" transform="matrix(-0.821787 -0.474418 0.821787 -0.474418 309.929 170.654)" stroke="currentColor" stroke-opacity="0.6" stroke-width="2"/>
<line y1="-1" x2="155.971" y2="-1" transform="matrix(-0.821787 -0.474418 0.821787 -0.474418 330.714 158.654)" stroke="currentColor" stroke-opacity="0.6" stroke-width="2"/>
<line y1="-1" x2="155.971" y2="-1" transform="matrix(-0.821787 -0.474418 0.821787 -0.474418 299.536 176.654)" stroke="currentColor" stroke-opacity="0.6" stroke-width="2"/>
<line y1="-1" x2="155.971" y2="-1" transform="matrix(-0.821787 -0.474418 0.821787 -0.474418 412.122 111.658)" stroke="currentColor" stroke-opacity="0.4" stroke-width="2"/>
<line y1="-1" x2="155.971" y2="-1" transform="matrix(-0.821787 -0.474418 0.821787 -0.474418 380.944 129.656)" stroke="currentColor" stroke-opacity="0.4" stroke-width="2"/>
<line y1="-1" x2="155.971" y2="-1" transform="matrix(-0.821787 -0.474418 0.821787 -0.474418 401.729 117.658)" stroke="currentColor" stroke-opacity="0.4" stroke-width="2"/>
<line y1="-1" x2="155.971" y2="-1" transform="matrix(-0.821787 -0.474418 0.821787 -0.474418 370.552 135.656)" stroke="currentColor" stroke-opacity="0.4" stroke-width="2"/>
<line y1="-1" x2="155.971" y2="-1" transform="matrix(-0.821787 -0.474418 0.821787 -0.474418 391.337 123.656)" stroke="currentColor" stroke-opacity="0.4" stroke-width="2"/>
<line y1="-1" x2="155.971" y2="-1" transform="matrix(-0.821787 -0.474418 0.821787 -0.474418 360.159 141.656)" stroke="currentColor" stroke-opacity="0.4" stroke-width="2"/>
<line y1="-1" x2="155.971" y2="-1" transform="matrix(-0.821787 -0.474418 0.821787 -0.474418 472.745 76.6602)" stroke="currentColor" stroke-opacity="0.2" stroke-width="2"/>
<line y1="-1" x2="155.971" y2="-1" transform="matrix(-0.821787 -0.474418 0.821787 -0.474418 441.567 94.6582)" stroke="currentColor" stroke-opacity="0.2" stroke-width="2"/>
<line y1="-1" x2="155.971" y2="-1" transform="matrix(-0.821787 -0.474418 0.821787 -0.474418 462.352 82.6602)" stroke="currentColor" stroke-opacity="0.2" stroke-width="2"/>
<line y1="-1" x2="155.971" y2="-1" transform="matrix(-0.821787 -0.474418 0.821787 -0.474418 431.175 100.658)" stroke="currentColor" stroke-opacity="0.2" stroke-width="2"/>
<line y1="-1" x2="155.971" y2="-1" transform="matrix(-0.821787 -0.474418 0.821787 -0.474418 451.96 88.6582)" stroke="currentColor" stroke-opacity="0.2" stroke-width="2"/>
<line y1="-1" x2="155.971" y2="-1" transform="matrix(-0.821787 -0.474418 0.821787 -0.474418 420.782 106.658)" stroke="currentColor" stroke-opacity="0.2" stroke-width="2"/>

<line y1="-1" x2="154.917" y2="-1" transform="matrix(-0.821787 0.474418 -0.821787 -0.474418 567.144 122.156)" stroke="currentColor" stroke-opacity="0.5" stroke-width="2"/>
<line y1="-1" x2="157.024" y2="-1" transform="matrix(-0.821787 0.474418 -0.821787 -0.474418 581.867 130.654)" stroke="currentColor" stroke-opacity="0.5" stroke-width="2"/>
<line y1="-1" x2="155.971" y2="-1" transform="matrix(-0.821787 0.474418 -0.821787 -0.474418 626.035 156.154)" stroke="currentColor" stroke-opacity="0.5" stroke-width="2"/>

<line class="hover-line" y1="-1" x2="154.917" y2="-1" transform="matrix(-0.821787 0.474418 -0.821787 -0.474418 567.144 122.156)" stroke="currentColor" stroke-opacity="0.8" stroke-width="2"/>
<line class="hover-line" y1="-1" x2="157.024" y2="-1" transform="matrix(-0.821787 0.474418 -0.821787 -0.474418 581.867 130.654)" stroke="currentColor" stroke-opacity="0.8" stroke-width="2"/>
<line class="hover-line" y1="-1" x2="155.971" y2="-1" transform="matrix(-0.821787 0.474418 -0.821787 -0.474418 626.035 156.154)" stroke="currentColor" stroke-opacity="0.8" stroke-width="2"/>

<line y1="-1" x2="155.971" y2="-1" transform="matrix(0.821787 -0.474418 0.821787 0.474418 260.597 304.164)" stroke="currentColor" stroke-opacity="0.3" stroke-width="2"/>
<line y1="-1" x2="155.971" y2="-1" transform="matrix(0.821787 0.474418 -0.821787 0.474418 308.252 231.682)" stroke="currentColor" stroke-opacity="0.3" stroke-width="2"/>
<line y1="-1" x2="155.971" y2="-1" transform="matrix(0.821787 -0.474418 0.821787 0.474418 310.828 333.162)" stroke="currentColor" stroke-opacity="0.3" stroke-width="2"/>
<line y1="-1" x2="155.971" y2="-1" transform="matrix(0.821787 0.474418 -0.821787 0.474418 257.976 260.652)" stroke="currentColor" stroke-opacity="0.3" stroke-width="2"/>
<line y1="-1" x2="155.971" y2="-1" transform="matrix(0.821787 -0.474418 0.821787 0.474418 321.22 339.162)" stroke="currentColor" stroke-opacity="0.3" stroke-width="2"/>
<line y1="-1" x2="155.971" y2="-1" transform="matrix(0.821787 0.474418 -0.821787 0.474418 247.573 266.646)" stroke="currentColor" stroke-opacity="0.3" stroke-width="2"/>
<line y1="-1" x2="155.971" y2="-1" transform="matrix(0.821787 -0.474418 0.821787 0.474418 250.205 298.164)" stroke="currentColor" stroke-opacity="0.3" stroke-width="2"/>
<line y1="-1" x2="155.971" y2="-1" transform="matrix(0.821787 0.474418 -0.821787 0.474418 318.655 225.688)" stroke="currentColor" stroke-opacity="0.3" stroke-width="2"/>

<line class="hover-line" y1="-1" x2="155.971" y2="-1" transform="matrix(0.821787 -0.474418 0.821787 0.474418 260.597 304.164)" stroke="currentColor" stroke-opacity="0.8" stroke-width="2"/>
<line class="hover-line" y1="-1" x2="155.971" y2="-1" transform="matrix(0.821787 0.474418 -0.821787 0.474418 308.252 231.682)" stroke="currentColor" stroke-opacity="0.8" stroke-width="2"/>
<line class="hover-line" y1="-1" x2="155.971" y2="-1" transform="matrix(0.821787 -0.474418 0.821787 0.474418 310.828 333.162)" stroke="currentColor" stroke-opacity="0.8" stroke-width="2"/>
<line class="hover-line" y1="-1" x2="155.971" y2="-1" transform="matrix(0.821787 0.474418 -0.821787 0.474418 257.976 260.652)" stroke="currentColor" stroke-opacity="0.8" stroke-width="2"/>
<line class="hover-line" y1="-1" x2="155.971" y2="-1" transform="matrix(0.821787 -0.474418 0.821787 0.474418 321.22 339.162)" stroke="currentColor" stroke-opacity="0.8" stroke-width="2"/>
<line class="hover-line" y1="-1" x2="155.971" y2="-1" transform="matrix(0.821787 0.474418 -0.821787 0.474418 247.573 266.646)" stroke="currentColor" stroke-opacity="0.8" stroke-width="2"/>
<line class="hover-line" y1="-1" x2="155.971" y2="-1" transform="matrix(0.821787 -0.474418 0.821787 0.474418 250.205 298.164)" stroke="currentColor" stroke-opacity="0.8" stroke-width="2"/>
<line class="hover-line" y1="-1" x2="155.971" y2="-1" transform="matrix(0.821787 0.474418 -0.821787 0.474418 318.655 225.688)" stroke="currentColor" stroke-opacity="0.8" stroke-width="2"/>

<path d="M339.187 305.395C325.658 305.395 314.691 300.021 314.691 293.392V258.898C328.22 258.898 339.187 264.272 339.187 270.9V305.395Z" fill="currentColor"/>
<path d="M379.025 305.395C365.496 305.395 354.529 300.021 354.529 293.392V258.898C368.058 258.898 379.025 264.272 379.025 270.9V305.395Z" fill="currentColor"/>
</svg>