<svg width="704" height="387" viewBox="0 0 704 387" fill="none" xmlns="http://www.w3.org/2000/svg">
<rect x="1.3989" width="168.25" height="103.539" rx="8.8909" transform="matrix(0.865377 -0.499582 0.865377 0.499582 22.1883 183.562)" stroke="currentColor" stroke-width="1.6"/>
<rect x="1.3989" width="168.25" height="103.539" rx="8.8909" transform="matrix(0.865377 -0.499582 0.865377 0.499582 152.188 249.56)" stroke="currentColor" stroke-width="1.6"/>
<rect x="1.3989" width="168.25" height="103.539" rx="8.8909" transform="matrix(0.865377 -0.499582 0.865377 0.499582 200.986 85.6364)" stroke="currentColor" stroke-width="1.6"/>
<rect x="1.3989" width="168.25" height="103.539" rx="8.8909" transform="matrix(0.865377 -0.499582 0.865377 0.499582 330.219 148.56)" stroke="currentColor" stroke-width="1.6"/>
<rect x="1.3989" width="168.25" height="103.539" rx="8.8909" transform="matrix(0.865377 -0.499582 0.865377 0.499582 448.188 220.56)" stroke="currentColor" stroke-width="1.5"/>
<rect x="0.865377" width="91.1481" height="5.53954" rx="2.76977" transform="matrix(0.865377 -0.499582 0.865377 0.499582 105.116 189.467)" stroke="currentColor"/>
<rect x="0.865377" width="98.1029" height="6.03311" rx="3.01656" transform="matrix(0.865377 -0.499582 0.865377 0.499582 519.116 218.942)" stroke="currentColor"/>
<rect x="0.865377" width="50.2114" height="6.71679" rx="3.3584" transform="matrix(0.865377 -0.499582 0.865377 0.499582 440.236 119.014)" stroke="currentColor"/>
<rect x="0.865377" width="50.2114" height="6.71679" rx="3.3584" transform="matrix(0.865377 -0.499582 0.865377 0.499582 452.985 126.376)" stroke="currentColor"/>
<rect x="0.865377" width="50.2114" height="6.71679" rx="3.3584" transform="matrix(0.865377 -0.499582 0.865377 0.499582 465.734 133.733)" stroke="currentColor"/>

`````````````````````````````````````

<path d="M267.287 82.7868L281.017 74.8608C284.563 72.8133 290.314 72.8133 293.86 74.8608L327.16 94.0845L300.587 109.425L267.287 90.2015C263.741 88.154 263.741 84.8343 267.287 82.7868Z" stroke="currentColor"/>

<path d="M160.826 244.266L207.3 217.436L297.433 269.471L250.96 296.3C246.563 298.838 239.435 298.838 235.038 296.3L160.826 253.457C156.567 250.998 156.434 247.059 160.426 244.508L160.826 244.266Z" stroke="currentColor"/>

<path d="M290.725 55.3942L303.312 48.1278C306.858 46.0806 312.608 46.0809 316.154 48.1283L361.458 74.2822L336.029 88.9628L290.725 62.8089C287.178 60.7614 287.178 57.4417 290.725 55.3942Z" stroke="currentColor"/>

<path d="M346.745 48.1325L360.474 40.2065C364.021 38.1591 369.771 38.1591 373.318 40.2065L396.899 53.8201L370.326 69.1608L346.745 55.5472L346.423 55.3516C343.202 53.2935 343.309 50.116 346.745 48.1325Z" stroke="currentColor" />

<path d="M402.623 272.239L411.527 267.098C415.927 264.558 423.061 264.558 427.46 267.098L470.034 291.676L445.197 306.015L402.623 281.437L402.222 281.195C398.227 278.641 398.36 274.699 402.623 272.239Z" stroke="currentColor" />

<rect x="0.865377" width="54.4206" height="36.1809" rx="2.30394" transform="matrix(0.865377 -0.499582 0.865377 0.499582 381.349 153.01)" stroke="currentColor" />

<path d="M303.236 195.751L303.835 195.823L303.835 195.823L303.236 195.751ZM306.081 194.674L306.206 194.328L306.205 194.328L306.081 194.674ZM307.946 196.316L308.545 196.388L308.545 196.388L307.946 196.316ZM299.153 220.714L298.554 220.642L298.554 220.642L299.153 220.714ZM298.444 222.682L298.115 222.98L298.862 223.254L299.043 222.754L298.444 222.682ZM295.507 221.603L295.178 221.901L295.179 221.901L295.507 221.603ZM289.066 219.237L289.394 218.939L288.651 218.666L288.467 219.163L289.066 219.237ZM284.068 232.732L283.469 232.658L283.4 232.846L283.635 232.982L284.068 232.732ZM291.409 236.97L290.976 237.22L291.409 237.47L291.842 237.22L291.409 236.97ZM331.688 213.717L331.255 213.468L331.255 213.468L331.688 213.717ZM335.089 213.717L335.521 213.468L335.521 213.468L335.089 213.717ZM335.089 215.681L335.521 215.93L335.521 215.93L335.089 215.681ZM291.409 240.897L290.976 241.147L291.409 241.396L291.842 241.147L291.409 240.897ZM282.869 235.967L283.302 235.717L282.506 235.258L282.271 235.893L282.869 235.967ZM280.997 241.026L281.595 241.1L281.595 241.1L280.997 241.026ZM278.142 242.094L278.014 242.439L278.014 242.439L278.142 242.094ZM276.293 240.446L275.695 240.372L275.695 240.372L276.293 240.446ZM278.817 233.628L279.416 233.701L279.485 233.514L279.25 233.378L278.817 233.628ZM259.643 220.595L259.21 220.345L259.21 220.345L259.643 220.595ZM280.016 230.393L279.583 230.643L280.379 231.102L280.614 230.467L280.016 230.393ZM285.086 216.702L285.685 216.776L285.685 216.776L285.086 216.702ZM285.81 214.749L286.138 214.451L285.395 214.178L285.211 214.675L285.81 214.749ZM288.729 215.822L289.058 215.524L289.058 215.524L288.729 215.822ZM295.151 218.181L294.823 218.479L295.57 218.754L295.75 218.253L295.151 218.181ZM303.236 195.751L303.835 195.823C304.037 195.263 304.986 194.904 305.956 195.02L306.081 194.674L306.205 194.328C304.574 194.133 302.977 194.737 302.637 195.679L303.236 195.751ZM306.081 194.674L305.956 195.02C306.926 195.137 307.548 195.685 307.347 196.244L307.946 196.316L308.545 196.388C308.884 195.446 307.836 194.524 306.206 194.328L306.081 194.674ZM307.946 196.316L307.347 196.244L298.554 220.642L299.153 220.714L299.752 220.786L308.545 196.388L307.946 196.316ZM299.153 220.714L298.554 220.642L297.845 222.61L298.444 222.682L299.043 222.754L299.752 220.786L299.153 220.714ZM298.444 222.682L298.772 222.384L295.835 221.305L295.507 221.603L295.179 221.901L298.115 222.98L298.444 222.682ZM295.507 221.603L295.836 221.305L289.394 218.939L289.066 219.237L288.737 219.535L295.178 221.901L295.507 221.603ZM289.066 219.237L288.467 219.163L283.469 232.658L284.068 232.732L284.666 232.806L289.664 219.311L289.066 219.237ZM284.068 232.732L283.635 232.982L290.976 237.22L291.409 236.97L291.842 236.721L284.5 232.483L284.068 232.732ZM291.409 236.97L291.842 237.22L332.121 213.967L331.688 213.717L331.255 213.468L290.976 236.721L291.409 236.97ZM331.688 213.717L332.121 213.967C332.821 213.563 333.956 213.563 334.656 213.967L335.089 213.717L335.521 213.468C334.343 212.788 332.433 212.788 331.255 213.468L331.688 213.717ZM335.089 213.717L334.656 213.967C335.356 214.371 335.356 215.027 334.656 215.431L335.089 215.681L335.521 215.93C336.699 215.25 336.699 214.148 335.521 213.468L335.089 213.717ZM335.089 215.681L334.656 215.431L290.976 240.647L291.409 240.897L291.842 241.147L335.521 215.93L335.089 215.681ZM291.409 240.897L291.842 240.647L283.302 235.717L282.869 235.967L282.437 236.217L290.976 241.147L291.409 240.897ZM282.869 235.967L282.271 235.893L280.398 240.952L280.997 241.026L281.595 241.1L283.468 236.041L282.869 235.967ZM280.997 241.026L280.398 240.952C280.191 241.511 279.238 241.868 278.27 241.748L278.142 242.094L278.014 242.439C279.643 242.64 281.247 242.04 281.595 241.1L280.997 241.026ZM278.142 242.094L278.27 241.748C277.302 241.629 276.684 241.078 276.891 240.519L276.293 240.446L275.695 240.372C275.347 241.312 276.385 242.238 278.014 242.439L278.142 242.094ZM276.293 240.446L276.891 240.519L279.416 233.701L278.817 233.628L278.219 233.554L275.695 240.372L276.293 240.446ZM278.817 233.628L279.25 233.378L260.076 222.308L259.643 222.558L259.21 222.808L278.385 233.877L278.817 233.628ZM259.643 222.558L260.076 222.308C259.375 221.904 259.375 221.249 260.076 220.845L259.643 220.595L259.21 220.345C258.032 221.025 258.032 222.128 259.21 222.808L259.643 222.558ZM259.643 220.595L260.076 220.845C260.776 220.441 261.911 220.441 262.611 220.845L263.044 220.595L263.476 220.345C262.298 219.665 260.388 219.665 259.21 220.345L259.643 220.595ZM263.044 220.595L262.611 220.845L279.583 230.643L280.016 230.393L280.448 230.143L263.476 220.345L263.044 220.595ZM280.016 230.393L280.614 230.467L285.685 216.776L285.086 216.702L284.488 216.628L279.417 230.319L280.016 230.393ZM285.086 216.702L285.685 216.776L286.408 214.823L285.81 214.749L285.211 214.675L284.488 216.628L285.086 216.702ZM285.81 214.749L285.481 215.047L288.401 216.12L288.729 215.822L289.058 215.524L286.138 214.451L285.81 214.749ZM288.729 215.822L288.401 216.12L294.823 218.479L295.151 218.181L295.48 217.883L289.058 215.524L288.729 215.822ZM295.151 218.181L295.75 218.253L303.835 195.823L303.236 195.751L302.637 195.679L294.552 218.11L295.151 218.181Z" fill="currentColor"/>

<path class="hover-line" d="M267.287 82.7868L281.017 74.8608C284.563 72.8133 290.314 72.8133 293.86 74.8608L327.16 94.0845L300.587 109.425L267.287 90.2015C263.741 88.154 263.741 84.8343 267.287 82.7868Z" stroke="currentColor"/>

<path class="hover-line" d="M160.826 244.266L207.3 217.436L297.433 269.471L250.96 296.3C246.563 298.838 239.435 298.838 235.038 296.3L160.826 253.457C156.567 250.998 156.434 247.059 160.426 244.508L160.826 244.266Z" stroke="currentColor"/>

<path class="hover-line" d="M290.725 55.3942L303.312 48.1278C306.858 46.0806 312.608 46.0809 316.154 48.1283L361.458 74.2822L336.029 88.9628L290.725 62.8089C287.178 60.7614 287.178 57.4417 290.725 55.3942Z" stroke="currentColor"/>

<path class="hover-line" d="M346.745 48.1325L360.474 40.2065C364.021 38.1591 369.771 38.1591 373.318 40.2065L396.899 53.8201L370.326 69.1608L346.745 55.5472L346.423 55.3516C343.202 53.2935 343.309 50.116 346.745 48.1325Z" stroke="currentColor"/>

<path class="hover-line" d="M402.623 272.239L411.527 267.098C415.927 264.558 423.061 264.558 427.46 267.098L470.034 291.676L445.197 306.015L402.623 281.437L402.222 281.195C398.227 278.641 398.36 274.699 402.623 272.239Z" stroke="currentColor"/>

<rect class="hover-line" x="0.865377" width="54.4206" height="36.1809" rx="2.30394" transform="matrix(0.865377 -0.499582 0.865377 0.499582 381.349 153.01)" stroke="currentColor"/>

<path class="hover-line" d="M303.236 195.751L303.835 195.823L303.835 195.823L303.236 195.751ZM306.081 194.674L306.206 194.328L306.205 194.328L306.081 194.674ZM307.946 196.316L308.545 196.388L308.545 196.388L307.946 196.316ZM299.153 220.714L298.554 220.642L298.554 220.642L299.153 220.714ZM298.444 222.682L298.115 222.98L298.862 223.254L299.043 222.754L298.444 222.682ZM295.507 221.603L295.178 221.901L295.179 221.901L295.507 221.603ZM289.066 219.237L289.394 218.939L288.651 218.666L288.467 219.163L289.066 219.237ZM284.068 232.732L283.469 232.658L283.4 232.846L283.635 232.982L284.068 232.732ZM291.409 236.97L290.976 237.22L291.409 237.47L291.842 237.22L291.409 236.97ZM331.688 213.717L331.255 213.468L331.255 213.468L331.688 213.717ZM335.089 213.717L335.521 213.468L335.521 213.468L335.089 213.717ZM335.089 215.681L335.521 215.93L335.521 215.93L335.089 215.681ZM291.409 240.897L290.976 241.147L291.409 241.396L291.842 241.147L291.409 240.897ZM282.869 235.967L283.302 235.717L282.506 235.258L282.271 235.893L282.869 235.967ZM280.997 241.026L281.595 241.1L281.595 241.1L280.997 241.026ZM278.142 242.094L278.014 242.439L278.014 242.439L278.142 242.094ZM276.293 240.446L275.695 240.372L275.695 240.372L276.293 240.446ZM278.817 233.628L279.416 233.701L279.485 233.514L279.25 233.378L278.817 233.628ZM259.643 220.595L259.21 220.345L259.21 220.345L259.643 220.595ZM280.016 230.393L279.583 230.643L280.379 231.102L280.614 230.467L280.016 230.393ZM285.086 216.702L285.685 216.776L285.685 216.776L285.086 216.702ZM285.81 214.749L286.138 214.451L285.395 214.178L285.211 214.675L285.81 214.749ZM288.729 215.822L289.058 215.524L289.058 215.524L288.729 215.822ZM295.151 218.181L294.823 218.479L295.57 218.754L295.75 218.253L295.151 218.181ZM303.236 195.751L303.835 195.823C304.037 195.263 304.986 194.904 305.956 195.02L306.081 194.674L306.205 194.328C304.574 194.133 302.977 194.737 302.637 195.679L303.236 195.751ZM306.081 194.674L305.956 195.02C306.926 195.137 307.548 195.685 307.347 196.244L307.946 196.316L308.545 196.388C308.884 195.446 307.836 194.524 306.206 194.328L306.081 194.674ZM307.946 196.316L307.347 196.244L298.554 220.642L299.153 220.714L299.752 220.786L308.545 196.388L307.946 196.316ZM299.153 220.714L298.554 220.642L297.845 222.61L298.444 222.682L299.043 222.754L299.752 220.786L299.153 220.714ZM298.444 222.682L298.772 222.384L295.835 221.305L295.507 221.603L295.179 221.901L298.115 222.98L298.444 222.682ZM295.507 221.603L295.836 221.305L289.394 218.939L289.066 219.237L288.737 219.535L295.178 221.901L295.507 221.603ZM289.066 219.237L288.467 219.163L283.469 232.658L284.068 232.732L284.666 232.806L289.664 219.311L289.066 219.237ZM284.068 232.732L283.635 232.982L290.976 237.22L291.409 236.97L291.842 236.721L284.5 232.483L284.068 232.732ZM291.409 236.97L291.842 237.22L332.121 213.967L331.688 213.717L331.255 213.468L290.976 236.721L291.409 236.97ZM331.688 213.717L332.121 213.967C332.821 213.563 333.956 213.563 334.656 213.967L335.089 213.717L335.521 213.468C334.343 212.788 332.433 212.788 331.255 213.468L331.688 213.717ZM335.089 213.717L334.656 213.967C335.356 214.371 335.356 215.027 334.656 215.431L335.089 215.681L335.521 215.93C336.699 215.25 336.699 214.148 335.521 213.468L335.089 213.717ZM335.089 215.681L334.656 215.431L290.976 240.647L291.409 240.897L291.842 241.147L335.521 215.93L335.089 215.681ZM291.409 240.897L291.842 240.647L283.302 235.717L282.869 235.967L282.437 236.217L290.976 241.147L291.409 240.897ZM282.869 235.967L282.271 235.893L280.398 240.952L280.997 241.026L281.595 241.1L283.468 236.041L282.869 235.967ZM280.997 241.026L280.398 240.952C280.191 241.511 279.238 241.868 278.27 241.748L278.142 242.094L278.014 242.439C279.643 242.64 281.247 242.04 281.595 241.1L280.997 241.026ZM278.142 242.094L278.27 241.748C277.302 241.629 276.684 241.078 276.891 240.519L276.293 240.446L275.695 240.372C275.347 241.312 276.385 242.238 278.014 242.439L278.142 242.094ZM276.293 240.446L276.891 240.519L279.416 233.701L278.817 233.628L278.219 233.554L275.695 240.372L276.293 240.446ZM278.817 233.628L279.25 233.378L260.076 222.308L259.643 222.558L259.21 222.808L278.385 233.877L278.817 233.628ZM259.643 222.558L260.076 222.308C259.375 221.904 259.375 221.249 260.076 220.845L259.643 220.595L259.21 220.345C258.032 221.025 258.032 222.128 259.21 222.808L259.643 222.558ZM259.643 220.595L260.076 220.845C260.776 220.441 261.911 220.441 262.611 220.845L263.044 220.595L263.476 220.345C262.298 219.665 260.388 219.665 259.21 220.345L259.643 220.595ZM263.044 220.595L262.611 220.845L279.583 230.643L280.016 230.393L280.448 230.143L263.476 220.345L263.044 220.595ZM280.016 230.393L280.614 230.467L285.685 216.776L285.086 216.702L284.488 216.628L279.417 230.319L280.016 230.393ZM285.086 216.702L285.685 216.776L286.408 214.823L285.81 214.749L285.211 214.675L284.488 216.628L285.086 216.702ZM285.81 214.749L285.481 215.047L288.401 216.12L288.729 215.822L289.058 215.524L286.138 214.451L285.81 214.749ZM288.729 215.822L288.401 216.12L294.823 218.479L295.151 218.181L295.48 217.883L289.058 215.524L288.729 215.822ZM295.151 218.181L295.75 218.253L303.835 195.823L303.236 195.751L302.637 195.679L294.552 218.11L295.151 218.181Z" fill="currentColor"/>

`````````````````````````````````````
<rect x="0.865377" width="69.1515" height="5.53954" rx="2.76977" transform="matrix(0.865377 -0.499582 0.865377 0.499582 129.116 191.479)" stroke="currentColor"/>
<rect x="0.865377" width="74.4461" height="6.03311" rx="3.01656" transform="matrix(0.865377 -0.499582 0.865377 0.499582 546.116 222.124)" stroke="currentColor"/>
<rect x="0.865377" width="11.4846" height="10.8901" rx="5.44504" transform="matrix(0.865377 -0.499582 0.865377 0.499582 114.891 155.313)" stroke="currentColor"/>

<path d="M250.726 171.61L251.547 172.084V172.084L250.726 171.61ZM122.853 245.431L122.032 244.956V244.956L122.853 245.431ZM103.146 245.431L102.325 245.905L103.146 245.431ZM32.5727 204.691L33.3939 204.217L32.5727 204.691ZM250.145 160.866L250.914 160.363V160.363L250.145 160.866ZM32.4721 193.372L33.3017 193.841L32.4721 193.372ZM250.726 171.61L249.905 171.136L122.032 244.956L122.853 245.431L123.674 245.905L251.547 172.084L250.726 171.61ZM103.146 245.431L103.967 244.957L33.3939 204.217L32.5727 204.691L31.7516 205.165L102.325 245.905L103.146 245.431ZM245.5 158.5L244.732 159.002L249.377 161.369L250.145 160.866L250.914 160.363L246.268 157.997L245.5 158.5ZM32.4721 193.372L33.3017 193.841L37.3295 191.468L36.5 190.999L35.6705 190.529L31.6426 192.903L32.4721 193.372ZM122.853 245.431L122.032 244.956C117.044 247.836 108.956 247.836 103.967 244.957L103.146 245.431L102.325 245.905C108.22 249.308 117.779 249.308 123.674 245.905L122.853 245.431ZM250.726 171.61L251.547 172.084C257.231 168.803 256.941 163.434 250.914 160.363L250.145 160.866L249.377 161.369C254.4 163.927 254.641 168.402 249.905 171.136L250.726 171.61ZM32.5727 204.691L33.3939 204.217C28.4411 201.358 28.4 196.729 33.3017 193.841L32.4721 193.372L31.6426 192.903C25.8497 196.316 25.8983 201.786 31.7516 205.165L32.5727 204.691Z" fill="currentColor"/>
<path d="M430.344 72.3592L429.523 71.8851V71.8851L430.344 72.3592ZM302.035 146.431L301.213 145.957V145.957L302.035 146.431ZM282.327 146.432L281.506 146.906L282.327 146.432ZM211.818 105.729L212.639 105.255L211.818 105.729ZM430.198 61.8473L429.39 62.3289V62.3289L430.198 61.8473ZM211.781 94.3724L212.605 94.8447L211.781 94.3724ZM430.344 72.3592L429.523 71.8851L301.213 145.957L302.035 146.431L302.856 146.906L431.165 72.8332L430.344 72.3592ZM282.327 146.432L283.148 145.958L212.639 105.255L211.818 105.729L210.997 106.203L281.506 146.906L282.327 146.432ZM426 59.5L425.192 59.9816L429.39 62.3289L430.198 61.8473L431.006 61.3657L426.808 59.0184L426 59.5ZM211.781 94.3724L212.605 94.8447L215.824 92.9726L215 92.5003L214.176 92.028L210.957 93.9001L211.781 94.3724ZM302.035 146.431L301.213 145.957C296.225 148.837 288.137 148.837 283.148 145.958L282.327 146.432L281.506 146.906C287.402 150.309 296.96 150.309 302.856 146.906L302.035 146.431ZM430.344 72.3592L431.165 72.8332C436.669 69.6559 436.597 64.4918 431.006 61.3657L430.198 61.8473L429.39 62.3289C434.049 64.9339 434.109 69.2373 429.523 71.8851L430.344 72.3592ZM211.818 105.729L212.639 105.255C207.663 102.382 207.648 97.7278 212.605 94.8447L211.781 94.3724L210.957 93.9001C205.099 97.3074 205.116 102.808 210.997 106.203L211.818 105.729Z" fill="currentColor"/>
<path d="M559.03 136.095L558.209 135.621V135.621L559.03 136.095ZM430.267 210.43L429.446 209.956V209.956L430.267 210.43ZM410.559 210.43L409.738 210.904L410.559 210.43ZM339.921 169.653L339.1 170.127L339.921 169.653ZM559.339 125.851L560.189 125.394V125.394L559.339 125.851ZM339.756 158.373L338.921 157.907L339.756 158.373ZM559.03 136.095L558.209 135.621L429.446 209.956L430.267 210.43L431.088 210.904L559.852 136.569L559.03 136.095ZM410.559 210.43L411.381 209.956L340.742 169.179L339.921 169.653L339.1 170.127L409.738 210.904L410.559 210.43ZM554.732 122.999L553.883 123.457L558.49 126.308L559.339 125.851L560.189 125.394L555.581 122.542L554.732 122.999ZM339.756 158.373L340.591 158.839L344.567 156.464L343.732 155.998L342.897 155.532L338.921 157.907L339.756 158.373ZM430.267 210.43L429.446 209.956C424.457 212.836 416.369 212.836 411.381 209.956L410.559 210.43L409.738 210.904C415.634 214.308 425.192 214.308 431.088 210.904L430.267 210.43ZM559.03 136.095L559.852 136.569C565.16 133.505 565.309 128.563 560.189 125.394L559.339 125.851L558.49 126.308C562.757 128.949 562.633 133.067 558.209 135.621L559.03 136.095ZM339.921 169.653L340.742 169.179C335.813 166.333 335.746 161.732 340.591 158.839L339.756 158.373L338.921 157.907C333.195 161.326 333.275 166.764 339.1 170.127L339.921 169.653Z" fill="currentColor"/>
<path d="M677.024 207.543L676.203 207.069V207.069L677.024 207.543ZM549.035 281.43L548.214 280.956V280.956L549.035 281.43ZM529.327 281.431L528.506 281.905L529.327 281.431ZM458.819 240.728L459.641 240.254L458.819 240.728ZM676.56 196.858L677.338 196.361V196.361L676.56 196.858ZM458.784 229.371L459.608 229.844L458.784 229.371ZM677.024 207.543L676.203 207.069L548.214 280.956L549.035 281.43L549.856 281.904L677.845 208.017L677.024 207.543ZM529.327 281.431L530.148 280.956L459.641 240.254L458.819 240.728L457.998 241.202L528.506 281.905L529.327 281.431ZM673 195L672.221 195.497L675.781 197.356L676.56 196.858L677.338 196.361L673.779 194.503L673 195ZM458.784 229.371L459.608 229.844L462.824 227.974L462 227.501L461.176 227.029L457.96 228.899L458.784 229.371ZM549.035 281.43L548.214 280.956C543.225 283.836 535.137 283.836 530.148 280.956L529.327 281.431L528.506 281.905C534.402 285.308 543.96 285.308 549.856 281.904L549.035 281.43ZM677.024 207.543L677.845 208.017C683.482 204.763 683.251 199.448 677.338 196.361L676.56 196.858L675.781 197.356C680.707 199.928 680.9 204.357 676.203 207.069L677.024 207.543ZM458.819 240.728L459.641 240.254C454.664 237.382 454.65 232.727 459.608 229.844L458.784 229.371L457.96 228.899C452.1 232.306 452.117 237.808 457.998 241.202L458.819 240.728Z" fill="currentColor"/>
<path d="M382.153 237.538L381.332 237.064V237.064L382.153 237.538ZM254.035 311.5L253.214 311.026V311.026L254.035 311.5ZM234.327 311.5L233.506 311.974L234.327 311.5ZM163.508 270.619L162.687 271.093L163.508 270.619ZM381.818 226.922L382.608 226.431V226.431L381.818 226.922ZM163.162 259.448L164.012 259.905L163.162 259.448ZM382.153 237.538L381.332 237.064L253.214 311.026L254.035 311.5L254.856 311.974L382.974 238.012L382.153 237.538ZM234.327 311.5L235.148 311.026L164.33 270.145L163.508 270.619L162.687 271.093L233.506 311.974L234.327 311.5ZM376.5 224.068L375.709 224.559L381.027 227.413L381.818 226.922L382.608 226.431L377.291 223.577L376.5 224.068ZM163.162 259.448L164.012 259.905L167.85 257.525L167 257.068L166.15 256.612L162.312 258.991L163.162 259.448ZM254.035 311.5L253.214 311.026C248.225 313.906 240.137 313.906 235.148 311.026L234.327 311.5L233.506 311.974C239.402 315.378 248.96 315.378 254.856 311.974L254.035 311.5ZM382.153 237.538L382.974 238.012C388.558 234.789 388.392 229.534 382.608 226.431L381.818 226.922L381.027 227.413C385.846 229.999 385.985 234.378 381.332 237.064L382.153 237.538ZM163.508 270.619L164.33 270.145C159.466 267.337 159.326 262.811 164.012 259.905L163.162 259.448L162.312 258.991C156.774 262.426 156.94 267.775 162.687 271.093L163.508 270.619Z" fill="currentColor"/>
<path d="M508.003 307.555L507.181 307.081V307.081L508.003 307.555ZM380.042 381.427L379.22 380.952V380.952L380.042 381.427ZM360.319 381.427L359.498 381.901L360.319 381.427ZM289.332 340.448L290.154 339.973L289.332 340.448ZM507.525 296.856L506.746 297.354V297.354L507.525 296.856ZM288.802 329.385L287.936 328.937L288.802 329.385ZM508.003 307.555L507.181 307.081L379.22 380.952L380.042 381.427L380.864 381.901L508.825 308.03L508.003 307.555ZM360.319 381.427L361.141 380.952L290.154 339.973L289.332 340.448L288.51 340.922L359.498 381.901L360.319 381.427ZM503 294.5L502.222 294.999L506.746 297.354L507.525 296.856L508.303 296.358L503.778 294.002L503 294.5ZM288.802 329.385L289.668 329.832L293.366 327.448L292.5 327L291.634 326.553L287.936 328.937L288.802 329.385ZM380.042 381.427L379.22 380.952C374.228 383.834 366.134 383.835 361.141 380.952L360.319 381.427L359.498 381.901C365.398 385.307 374.964 385.307 380.864 381.901L380.042 381.427ZM508.003 307.555L508.825 308.03C514.471 304.77 514.233 299.445 508.303 296.358L507.525 296.856L506.746 297.354C511.688 299.927 511.887 304.365 507.181 307.081L508.003 307.555ZM289.332 340.448L290.154 339.973C285.355 337.203 285.142 332.751 289.668 329.832L288.802 329.385L287.936 328.937C282.587 332.387 282.839 337.648 288.51 340.922L289.332 340.448Z" fill="currentColor"/>
<rect x="1.39998" width="168.119" height="103.458" rx="8.8909" transform="matrix(0.866044 -0.499967 0.866044 0.499967 279.188 320.561)" stroke="currentColor" stroke-width="1.61653"/>


<rect x="0.866044" width="63.8892" height="6.09721" rx="3.0486" transform="matrix(0.866044 -0.499967 0.866044 0.499967 336.116 321.876)" stroke="currentColor"/>
<rect x="0.866044" width="46.0997" height="6.09721" rx="3.0486" transform="matrix(0.866044 -0.499967 0.866044 0.499967 347.85 328.65)" stroke="currentColor"/>
<rect x="0.866044" width="51.4808" height="6.09721" rx="3.0486" transform="matrix(0.866044 -0.499967 0.866044 0.499967 359.584 335.423)" stroke="currentColor"/>


</svg>
