<svg width="704" height="360" viewBox="0 0 704 360" fill="none" xmlns="http://www.w3.org/2000/svg">
<path d="M472.878 2.52769C478.717 -0.842533 488.183 -0.842597 494.022 2.52769L692.748 117.252C698.586 120.623 698.586 126.088 692.748 129.458L361.517 320.678C355.679 324.049 346.212 324.048 340.373 320.678L141.647 205.953C135.809 202.583 135.809 197.118 141.647 193.747L242.743 135.385L211.744 117.49C206.355 114.378 206.355 109.334 211.744 106.223L248.521 84.9916L248.776 84.848C254.182 81.8814 262.732 81.929 268.037 84.9916L299.036 102.887L314.623 93.888L283.625 75.9925C278.236 72.8813 278.236 67.8372 283.625 64.7259L320.402 43.4945L320.657 43.3509C326.063 40.3841 334.613 40.4319 339.918 43.4945L370.917 61.39L472.878 2.52769ZM170.755 220.879L342 319.74C346.941 322.591 354.95 322.591 359.89 319.74L433.271 277.375L253.081 173.353L253.895 172.884L434.084 276.907L691.121 128.519C696.061 125.667 696.061 121.043 691.121 118.191L519.876 19.3314L170.755 220.879ZM492.395 3.46617C487.455 0.61469 479.445 0.614697 474.505 3.46617L372.543 62.3285L376.695 64.7259L376.944 64.8724C382.001 67.944 382.001 72.7734 376.944 75.8451L376.695 75.9925L339.918 97.224L339.663 97.3675C334.343 100.287 325.977 100.287 320.657 97.3675L320.402 97.224L316.25 94.8265L300.661 103.826L304.814 106.223L305.062 106.369C310.119 109.441 310.119 114.271 305.062 117.342L304.814 117.49L268.037 138.721L267.783 138.865C262.462 141.784 254.097 141.784 248.776 138.865L248.521 138.721L244.369 136.324L143.274 194.686C138.334 197.538 138.334 202.162 143.274 205.014L169.942 220.41L519.063 18.8617L492.395 3.46617ZM266.411 85.93C261.92 83.3376 254.638 83.3377 250.147 85.93L213.37 107.161C208.879 109.754 208.879 113.958 213.37 116.551L250.147 137.782C254.638 140.374 261.92 140.374 266.411 137.782L303.187 116.551C307.677 113.958 307.677 109.754 303.187 107.161L266.411 85.93ZM247.576 98.6371C250.658 96.858 255.654 96.858 258.736 98.6371C260.501 99.6562 261.251 101.038 260.995 102.367C263.297 102.218 265.691 102.653 267.456 103.672C270.538 105.451 270.538 108.335 267.456 110.115C266.292 110.787 264.853 111.204 263.348 111.369L267.456 113.741C270.538 115.52 270.538 118.405 267.456 120.184C264.375 121.963 259.378 121.963 256.296 120.184C254.531 119.165 253.779 117.783 254.036 116.454C251.734 116.603 249.341 116.169 247.576 115.15C245.81 114.131 245.057 112.748 245.314 111.419C243.012 111.567 240.62 111.133 238.855 110.115C235.773 108.335 235.773 105.45 238.855 103.671L247.576 98.6371ZM258.736 115.149C257.001 116.15 257.001 117.774 258.736 118.776C260.47 119.777 263.282 119.777 265.017 118.776C266.751 117.774 266.752 116.15 265.017 115.149L261.876 113.336L258.736 115.149ZM250.015 110.115C248.281 111.116 248.28 112.74 250.015 113.742C251.75 114.743 254.562 114.742 256.296 113.741L259.437 111.927L253.156 108.301L250.015 110.115ZM241.294 105.08C239.56 106.082 239.56 107.705 241.294 108.706C243.029 109.708 245.841 109.708 247.576 108.706L250.716 106.893L244.435 103.267L241.294 105.08ZM265.017 105.08C263.282 104.079 260.471 104.079 258.737 105.08C257.002 106.082 257.002 107.705 258.737 108.706L258.902 108.797C260.645 109.707 263.337 109.676 265.017 108.705C266.751 107.704 266.751 106.082 265.017 105.08ZM256.296 100.045C254.562 99.044 251.75 99.0441 250.015 100.045L246.874 101.859L253.156 105.485L256.297 103.671L256.454 103.577C258.03 102.57 257.976 101.015 256.296 100.045ZM338.292 44.433C333.801 41.8404 326.52 41.8407 322.029 44.433L285.251 65.6644C280.761 68.2572 280.76 72.4614 285.251 75.0541L322.029 96.2845C326.52 98.8769 333.801 98.8771 338.292 96.2845L375.069 75.0541C379.559 72.4614 379.559 68.2571 375.069 65.6644L338.292 44.433ZM313.63 66.3646C314.582 66.3408 315.386 66.7666 315.428 67.3158L316.225 77.9037L334.565 78.3636C335.516 78.3876 336.254 78.8524 336.213 79.4017C336.172 79.9511 335.367 80.3767 334.415 80.3529L314.495 79.8529L312.916 79.8138L312.848 78.9017L311.982 67.4027C311.941 66.8533 312.679 66.3885 313.63 66.3646ZM344.957 60.3646L346.537 60.4046L346.606 61.3158L347.472 72.8158C347.513 73.3651 346.775 73.8299 345.824 73.8539C344.872 73.8776 344.066 73.4511 344.025 72.9017L343.228 62.3138L324.889 61.8548C323.937 61.831 323.2 61.3661 323.241 60.8168C323.282 60.2673 324.087 59.8408 325.038 59.8646L344.957 60.3646Z" fill="currentColor"/>
<circle cx="5.32494" cy="5.32494" r="5.32494" transform="matrix(0.813197 -0.469458 0.813197 0.469458 161.281 197.823)" fill="currentColor"/>
<circle opacity="0.75" cx="5.32494" cy="5.32494" r="5.32494" transform="matrix(0.813197 -0.469458 0.813197 0.469458 175.138 189.823)" fill="currentColor" fill-opacity="0.75"/>
<circle opacity="0.5" cx="5.32494" cy="5.32494" r="5.32494" transform="matrix(0.813197 -0.469458 0.813197 0.469458 188.995 181.824)" fill="currentColor" fill-opacity="0.5"/>
<path d="M147.48 224.658L143.274 227.086C138.333 229.938 138.333 234.562 143.274 237.414L342 352.139C346.94 354.991 354.95 354.991 359.89 352.139L691.122 160.919C696.062 158.067 696.062 153.443 691.122 150.591L687.24 148.35L688.867 147.411L692.748 149.652C698.586 153.022 698.586 158.487 692.748 161.858L361.517 353.078C355.678 356.448 346.212 356.448 340.374 353.078L141.647 238.353C135.809 234.982 135.809 229.518 141.647 226.147L145.854 223.719L147.48 224.658Z" fill="currentColor"/>
<path d="M147.48 207.658L143.274 210.086C138.333 212.938 138.333 217.562 143.274 220.414L342 335.139C346.94 337.991 354.95 337.991 359.89 335.139L691.122 143.919C696.062 141.067 696.062 136.443 691.122 133.591L687.24 131.35L688.867 130.411L692.748 132.652C698.586 136.022 698.586 141.487 692.748 144.858L361.517 336.078C355.678 339.448 346.212 339.448 340.374 336.078L141.647 221.353C135.809 217.982 135.809 212.518 141.647 209.147L145.854 206.719L147.48 207.658Z" fill="currentColor"/>
<rect width="220.452" height="8.5199" rx="4.25995" transform="matrix(0.813197 -0.469458 0.813197 0.469458 287.318 173.316)" stroke="currentColor"/>
<rect width="285.417" height="8.5199" rx="4.25995" transform="matrix(0.813197 -0.469458 0.813197 0.469458 307.237 184.815)" stroke="currentColor"/>
<rect width="173.593" height="8.5199" rx="4.25995" transform="matrix(0.813197 -0.469458 0.813197 0.469458 356.602 213.313)" stroke="currentColor"/>
<rect width="244.947" height="8.5199" rx="4.25995" transform="matrix(0.813197 -0.469458 0.813197 0.469458 376.521 224.812)" stroke="currentColor"/>
<rect width="270.507" height="8.5199" rx="4.25995" transform="matrix(0.813197 -0.469458 0.813197 0.469458 419.823 249.811)" stroke="currentColor"/>
<rect width="190.633" height="8.5199" rx="4.25995" transform="matrix(0.813197 -0.469458 0.813197 0.469458 399.904 238.312)" stroke="currentColor"/>
<rect width="69.2242" height="18.1048" rx="4" transform="matrix(0.813197 -0.469458 0.813197 0.469458 200.714 221.312)" stroke="currentColor"/>

<path d="M245.668 265.567C246.117 265.307 246.117 264.887 245.668 264.628C245.219 264.368 244.49 264.368 244.041 264.628L244.854 265.097L245.668 265.567ZM230.185 96.5775C230.634 96.8368 231.362 96.8368 231.811 96.5775C232.26 96.3183 232.26 95.8979 231.811 95.6386L230.998 96.1081L230.185 96.5775ZM302.499 54.8303C302.948 55.0895 303.677 55.0895 304.126 54.8303C304.575 54.571 304.575 54.1506 304.126 53.8913L303.312 54.3608L302.499 54.8303ZM244.854 265.097L244.041 264.628L201.837 288.992L202.65 289.462L203.463 289.931L245.668 265.567L244.854 265.097ZM183.133 289.462L183.947 288.992L6.00527 186.267L5.19207 186.736L4.37888 187.205L182.32 289.931L183.133 289.462ZM5.19208 175.469L6.00527 175.938L213.825 55.964L213.012 55.4946L212.199 55.0251L4.37888 175L5.19208 175.469ZM232.529 55.4946L231.716 55.9641L244.041 63.0797L244.855 62.6103L245.668 62.1408L233.342 55.0251L232.529 55.4946ZM244.855 62.6103L244.041 62.1408L217.859 77.256L218.672 77.7254L219.485 78.1949L245.668 63.0797L244.855 62.6103ZM218.672 88.9924L217.859 89.4619L230.185 96.5775L230.998 96.1081L231.811 95.6386L219.485 88.523L218.672 88.9924ZM244.855 62.6103L245.668 63.0797L272.283 47.7146L271.47 47.2451L270.657 46.7757L244.041 62.1408L244.855 62.6103ZM290.987 47.2451L290.174 47.7146L302.499 54.8303L303.312 54.3608L304.126 53.8913L291.8 46.7757L290.987 47.2451ZM218.672 77.7254L217.859 77.256C212.02 80.6265 212.02 86.0913 217.859 89.4619L218.672 88.9924L219.485 88.523C214.545 85.6709 214.545 81.0469 219.485 78.1949L218.672 77.7254ZM213.012 55.4946L213.825 55.964C218.765 53.112 226.775 53.112 231.716 55.9641L232.529 55.4946L233.342 55.0251C227.503 51.6546 218.037 51.6546 212.199 55.0251L213.012 55.4946ZM271.47 47.2451L272.283 47.7146C277.223 44.8626 285.233 44.8626 290.174 47.7146L290.987 47.2451L291.8 46.7757C285.961 43.4051 276.495 43.4051 270.657 46.7757L271.47 47.2451ZM5.19207 186.736L6.00527 186.267C1.06499 183.415 1.065 178.791 6.00527 175.938L5.19208 175.469L4.37888 175C-1.45963 178.37 -1.45964 183.835 4.37888 187.205L5.19207 186.736ZM202.65 289.462L201.837 288.992C196.897 291.844 188.887 291.844 183.947 288.992L183.133 289.462L182.32 289.931C188.159 293.302 197.625 293.302 203.463 289.931L202.65 289.462Z" fill="currentColor" fill-opacity="0.5"/>

<path class="hover-line" d="M245.668 265.567C246.117 265.307 246.117 264.887 245.668 264.628C245.219 264.368 244.49 264.368 244.041 264.628L244.854 265.097L245.668 265.567ZM230.185 96.5775C230.634 96.8368 231.362 96.8368 231.811 96.5775C232.26 96.3183 232.26 95.8979 231.811 95.6386L230.998 96.1081L230.185 96.5775ZM302.499 54.8303C302.948 55.0895 303.677 55.0895 304.126 54.8303C304.575 54.571 304.575 54.1506 304.126 53.8913L303.312 54.3608L302.499 54.8303ZM244.854 265.097L244.041 264.628L201.837 288.992L202.65 289.462L203.463 289.931L245.668 265.567L244.854 265.097ZM183.133 289.462L183.947 288.992L6.00527 186.267L5.19207 186.736L4.37888 187.205L182.32 289.931L183.133 289.462ZM5.19208 175.469L6.00527 175.938L213.825 55.964L213.012 55.4946L212.199 55.0251L4.37888 175L5.19208 175.469ZM232.529 55.4946L231.716 55.9641L244.041 63.0797L244.855 62.6103L245.668 62.1408L233.342 55.0251L232.529 55.4946ZM244.855 62.6103L244.041 62.1408L217.859 77.256L218.672 77.7254L219.485 78.1949L245.668 63.0797L244.855 62.6103ZM218.672 88.9924L217.859 89.4619L230.185 96.5775L230.998 96.1081L231.811 95.6386L219.485 88.523L218.672 88.9924ZM244.855 62.6103L245.668 63.0797L272.283 47.7146L271.47 47.2451L270.657 46.7757L244.041 62.1408L244.855 62.6103ZM290.987 47.2451L290.174 47.7146L302.499 54.8303L303.312 54.3608L304.126 53.8913L291.8 46.7757L290.987 47.2451ZM218.672 77.7254L217.859 77.256C212.02 80.6265 212.02 86.0913 217.859 89.4619L218.672 88.9924L219.485 88.523C214.545 85.6709 214.545 81.0469 219.485 78.1949L218.672 77.7254ZM213.012 55.4946L213.825 55.964C218.765 53.112 226.775 53.112 231.716 55.9641L232.529 55.4946L233.342 55.0251C227.503 51.6546 218.037 51.6546 212.199 55.0251L213.012 55.4946ZM271.47 47.2451L272.283 47.7146C277.223 44.8626 285.233 44.8626 290.174 47.7146L290.987 47.2451L291.8 46.7757C285.961 43.4051 276.495 43.4051 270.657 46.7757L271.47 47.2451ZM5.19207 186.736L6.00527 186.267C1.06499 183.415 1.065 178.791 6.00527 175.938L5.19208 175.469L4.37888 175C-1.45963 178.37 -1.45964 183.835 4.37888 187.205L5.19207 186.736ZM202.65 289.462L201.837 288.992C196.897 291.844 188.887 291.844 183.947 288.992L183.133 289.462L182.32 289.931C188.159 293.302 197.625 293.302 203.463 289.931L202.65 289.462Z" fill="currentColor"/>
</svg>